<svg width="30" height="33" viewBox="0 0 30 33" fill="none" xmlns="http://www.w3.org/2000/svg">
<path d="M3.13771 19.3683H0.522952C0.234134 19.3683 0 19.6233 0 19.9379V31.901C0 32.2156 0.234134 32.4706 0.522952 32.4706H3.13771C3.42653 32.4706 3.66067 32.2156 3.66067 31.901V19.9379C3.66067 19.6233 3.42653 19.3683 3.13771 19.3683Z" fill="white"/>
<path d="M29.0771 23.4246C28.8369 23.107 28.4422 22.9827 28.0835 23.1119L18.4089 26.6262C18.1411 26.7252 17.8602 26.7754 17.5774 26.7749H12.9283C12.1024 26.7753 11.295 27.0415 10.6075 27.5399L10.2289 27.8179C9.98884 27.9935 9.66363 27.9239 9.50247 27.6624C9.34131 27.401 9.40523 27.0467 9.64524 26.8711L10.0275 26.592C10.8869 25.969 11.896 25.6362 12.9283 25.6355H16.1079C16.4405 25.1515 16.4713 24.4963 16.1858 23.9778C16.1697 23.9488 16.1561 23.9183 16.145 23.8866C15.7554 23.2118 15.0784 22.7979 14.3466 22.7872H11.6105C10.4083 22.7855 9.24208 22.3398 8.30229 21.5231C7.54861 20.8677 6.61321 20.51 5.64883 20.5085H4.70752V31.9019H17.4153C17.9909 31.902 18.5555 31.7297 19.0474 31.404L28.8465 24.9041C29.0667 24.7605 29.2205 24.5217 29.2695 24.2473C29.3185 23.9728 29.258 23.6887 29.1032 23.4657C29.0944 23.452 29.086 23.4389 29.0771 23.4246Z" fill="white"/>
<path d="M26.1476 2.8479H23.0099C22.7211 2.8479 22.4869 3.10295 22.4869 3.41757C22.4869 3.73219 22.7211 3.98724 23.0099 3.98724H26.1476C26.4364 3.98724 26.6706 3.73219 26.6706 3.41757C26.6706 3.10295 26.4364 2.8479 26.1476 2.8479Z" fill="white"/>
<path d="M27.7165 0H21.4411C20.7944 0.000525365 20.1843 0.326857 19.7885 0.883948C19.3926 1.44104 19.2556 2.16624 19.4173 2.84834H17.2575C15.8134 2.84834 14.6427 4.12359 14.6427 5.69669V5.93595C14.4222 6.01876 14.222 6.15512 14.057 6.33471L11.9652 8.61339C11.6716 8.93411 11.5062 9.36817 11.505 9.82108V18.2294C11.505 19.1733 12.2074 19.9384 13.0739 19.9384H17.2575C18.1239 19.9384 18.8263 19.1733 18.8263 18.2294V9.82108C18.8251 9.36817 18.6597 8.93411 18.3661 8.61339L16.2743 6.33471C16.1094 6.15512 15.9091 6.01876 15.6886 5.93595V5.69669C15.6912 4.754 16.3921 3.9905 17.2575 3.98768H19.7781L21.1326 8.16335C21.4259 9.07548 22.2168 9.68567 23.1041 9.68437H26.0535C26.9408 9.68567 27.7317 9.07548 28.0251 8.16335L29.6881 3.03633C29.9137 2.33925 29.8149 1.56626 29.423 0.96282C29.0312 0.359375 28.3951 0.00044584 27.7165 0ZM16.7345 13.672V17.0901C16.7345 17.4047 16.5004 17.6597 16.2116 17.6597H14.1198C13.8309 17.6597 13.5968 17.4047 13.5968 17.0901V13.672C13.5968 13.3574 13.8309 13.1024 14.1198 13.1024H16.2116C16.5004 13.1024 16.7345 13.3574 16.7345 13.672ZM16.2116 9.68437C16.2127 10.2409 15.8446 10.7169 15.341 10.8102C14.8373 10.9034 14.3455 10.5867 14.1777 10.061C14.01 9.53534 14.2154 8.95458 14.6636 8.68744C14.9756 8.49753 15.3557 8.49753 15.6677 8.68744C16.0023 8.88687 16.2107 9.26889 16.2116 9.68437ZM26.1477 5.12702H23.01C22.3467 5.12499 21.7563 4.66885 21.5352 3.98768C21.4097 3.6202 21.4097 3.21582 21.5352 2.84834C21.7563 2.16717 22.3467 1.71104 23.01 1.70901H26.1477C27.0141 1.70901 27.7165 2.47415 27.7165 3.41801C27.7165 4.36187 27.0141 5.12702 26.1477 5.12702Z" fill="white"/>
<path d="M25.7774 14.0749L25.9939 13.8391C26.092 13.7323 26.1471 13.5874 26.1471 13.4363V10.8238H23.0094V13.4363C23.0094 13.5874 23.0645 13.7323 23.1626 13.8391L23.3791 14.0749C23.4772 14.1817 23.5323 14.3266 23.5324 14.4777V16.9557C23.5324 17.0442 23.5134 17.1314 23.4769 17.2104L23.1265 17.9749C23.053 18.1352 23.053 18.3238 23.1265 18.4842L23.4356 19.1581C23.4975 19.2932 23.5077 19.4495 23.4638 19.5927L23.114 20.744C23.0515 20.9487 23.1005 21.1743 23.2405 21.3268L24.2111 22.3841C24.4154 22.6065 24.7464 22.6065 24.9506 22.3841L25.9212 21.3268C26.0613 21.1743 26.1103 20.9487 26.0478 20.744L25.6953 19.5927C25.6514 19.4495 25.6616 19.2932 25.7235 19.1581L26.0326 18.4842C26.1061 18.3238 26.1061 18.1352 26.0326 17.9749L25.6822 17.2104C25.6448 17.1316 25.6249 17.0444 25.6242 16.9557V14.4777C25.6242 14.3266 25.6793 14.1817 25.7774 14.0749Z" fill="white"/>
</svg>
