<svg width="13" height="10" viewBox="0 0 13 10" fill="none" xmlns="http://www.w3.org/2000/svg">
<path d="M0.986939 2.17548H2.99529C3.10045 2.17548 3.18572 2.09025 3.18572 1.98505C3.18572 1.87986 3.10045 1.79462 2.99529 1.79462H0.986939C0.881771 1.79462 0.796509 1.87986 0.796509 1.98505C0.796509 2.09025 0.881745 2.17548 0.986939 2.17548Z" fill="#4D3F98"/>
<path d="M2.92653 3.09228H2.13318C2.02801 3.09228 1.94275 3.17751 1.94275 3.28271C1.94275 3.3879 2.02801 3.47314 2.13318 3.47314H2.92653C3.0317 3.47314 3.11696 3.3879 3.11696 3.28271C3.11696 3.17751 3.0317 3.09228 2.92653 3.09228Z" fill="#4D3F98"/>
<path d="M0.19043 4.41283H2.13312C2.23829 4.41283 2.32355 4.32759 2.32355 4.2224C2.32355 4.1172 2.23829 4.03197 2.13312 4.03197H0.19043C0.0852617 4.03197 0 4.1172 0 4.2224C0 4.32759 0.0852617 4.41283 0.19043 4.41283Z" fill="#4D3F98"/>
<path d="M3.18572 7.78884C3.18572 7.68365 3.10045 7.59841 2.99529 7.59841H0.986939C0.881771 7.59841 0.796509 7.68365 0.796509 7.78884C0.796509 7.89403 0.881771 7.97927 0.986939 7.97927H2.99529C3.10045 7.97927 3.18572 7.89403 3.18572 7.78884Z" fill="#4D3F98"/>
<path d="M2.92653 6.30078H2.13318C2.02801 6.30078 1.94275 6.38602 1.94275 6.49121C1.94275 6.5964 2.02801 6.68164 2.13318 6.68164H2.92653C3.0317 6.68164 3.11696 6.5964 3.11696 6.49121C3.11696 6.38602 3.0317 6.30078 2.92653 6.30078Z" fill="#4D3F98"/>
<path d="M2.32355 5.5515C2.32355 5.44631 2.23829 5.36107 2.13312 5.36107H0.19043C0.0852617 5.36107 0 5.44631 0 5.5515C0 5.65669 0.0852617 5.74193 0.19043 5.74193H2.13312C2.23829 5.74193 2.32355 5.65669 2.32355 5.5515Z" fill="#4D3F98"/>
<path d="M8.11304 2.59749C8.21823 2.59749 8.30347 2.51225 8.30347 2.40706V2.11639C8.30347 2.01119 8.21823 1.92596 8.11304 1.92596C8.00784 1.92596 7.92261 2.01119 7.92261 2.11639V2.40706C7.92261 2.51225 8.00784 2.59749 8.11304 2.59749Z" fill="#4D3F98"/>
<path d="M10.2068 2.79318C10.1324 2.71884 10.0118 2.71884 9.93746 2.79318L9.73192 2.99872C9.65756 3.07312 9.65756 3.19367 9.73192 3.26804C9.80634 3.34241 9.92687 3.34238 10.0012 3.26804L10.2068 3.0625C10.2811 2.98813 10.2811 2.86758 10.2068 2.79318Z" fill="#4D3F98"/>
<path d="M10.593 4.69653C10.4878 4.69653 10.4026 4.78177 10.4026 4.88696C10.4026 4.99216 10.4878 5.07739 10.593 5.07739H10.8837C10.9889 5.07739 11.0741 4.99216 11.0741 4.88696C11.0741 4.78177 10.9889 4.69653 10.8837 4.69653H10.593Z" fill="#4D3F98"/>
<path d="M10.0012 6.50583C9.92685 6.43149 9.80629 6.43149 9.73192 6.50583C9.65756 6.58023 9.65756 6.70078 9.73192 6.77515L9.93746 6.98069C10.0119 7.05506 10.1324 7.05503 10.2068 6.98069C10.2811 6.90629 10.2811 6.78574 10.2068 6.71137L10.0012 6.50583Z" fill="#4D3F98"/>
<path d="M7.92261 7.36687V7.65751C7.92261 7.76271 8.00784 7.84794 8.11304 7.84794C8.21823 7.84794 8.30347 7.76271 8.30347 7.65751V7.36687C8.30347 7.26167 8.21823 7.17644 8.11304 7.17644C8.00784 7.17644 7.92261 7.2617 7.92261 7.36687Z" fill="#4D3F98"/>
<path d="M6.22481 6.50583L6.01928 6.71137C5.94491 6.78576 5.94491 6.90632 6.01928 6.98069C6.09367 7.05506 6.21423 7.05503 6.28857 6.98069L6.49411 6.77515C6.56848 6.70075 6.56848 6.5802 6.49411 6.50583C6.41976 6.43149 6.29918 6.43149 6.22481 6.50583Z" fill="#4D3F98"/>
<path d="M5.34253 4.69653C5.23736 4.69653 5.1521 4.78177 5.1521 4.88696C5.1521 4.99216 5.23736 5.07739 5.34253 5.07739H5.6332C5.73837 5.07739 5.82363 4.99216 5.82363 4.88696C5.82363 4.78177 5.73837 4.69653 5.6332 4.69653H5.34253Z" fill="#4D3F98"/>
<path d="M6.49411 2.99872L6.28857 2.79318C6.2142 2.71884 6.09362 2.71884 6.01928 2.79318C5.94491 2.86758 5.94491 2.98813 6.01928 3.0625L6.22481 3.26804C6.29921 3.34241 6.41976 3.34238 6.49411 3.26804C6.56848 3.19367 6.56848 3.07312 6.49411 2.99872Z" fill="#4D3F98"/>
<path d="M9.13704 4.88696C9.13704 4.78177 9.05181 4.69653 8.94661 4.69653H8.30347V3.28268C8.30347 3.17748 8.21823 3.09225 8.11304 3.09225C8.00784 3.09225 7.92261 3.17748 7.92261 3.28268V4.88696C7.92261 4.99215 8.00784 5.07739 8.11304 5.07739H8.94661C9.05178 5.07739 9.13704 4.99215 9.13704 4.88696Z" fill="#4D3F98"/>
<path d="M11.7239 4.85552C11.8289 4.84914 11.9088 4.75888 11.9024 4.65392C11.7813 2.6556 10.1168 1.09024 8.113 1.09024C6.01949 1.09024 4.31628 2.79344 4.31628 4.88698C4.31628 6.98049 6.01949 8.68369 8.113 8.68369C9.98858 8.68369 11.589 7.3095 11.8674 5.45509C11.883 5.35109 11.8113 5.25413 11.7073 5.23851C11.6036 5.22295 11.5064 5.29452 11.4907 5.39857C11.2406 7.06455 9.80211 8.30285 8.113 8.30285C6.22949 8.30285 4.69714 6.7705 4.69714 4.887C4.69714 3.0035 6.22949 1.47113 8.113 1.47113C9.91576 1.47113 11.4133 2.87931 11.5222 4.67702C11.5286 4.78194 11.6188 4.86161 11.7239 4.85552Z" fill="#4D3F98"/>
<path d="M8.11306 0C7.44323 0 6.78696 0.138963 6.18291 0.398836H2.823C2.71783 0.398836 2.63257 0.484072 2.63257 0.589266C2.63257 0.694459 2.71783 0.779695 2.823 0.779695H5.46649C5.10907 1.00973 4.78003 1.2872 4.48992 1.60753C4.41933 1.68546 4.42527 1.80588 4.50322 1.87649C4.5812 1.94711 4.70157 1.94114 4.77221 1.86319C5.62539 0.921147 6.8431 0.380859 8.11306 0.380859C10.5977 0.380859 12.6192 2.40228 12.6192 4.88696C12.6192 7.37161 10.5978 9.39306 8.11306 9.39306C5.62838 9.39306 3.60696 7.37164 3.60696 4.88696C3.60696 4.01687 3.85551 3.17238 4.32569 2.44474C4.38277 2.3564 4.35743 2.23854 4.2691 2.18146C4.18076 2.12441 4.0629 2.1497 4.0058 2.23806C3.4957 3.0274 3.2261 3.94337 3.2261 4.88696C3.2261 6.60758 4.12 8.1232 5.46771 8.99422H2.82302C2.71786 8.99422 2.63259 9.07946 2.63259 9.18465C2.63259 9.28985 2.71786 9.37508 2.82302 9.37508H6.1803C6.77342 9.6315 7.4269 9.77392 8.11308 9.77392C10.8077 9.77392 13 7.58164 13 4.88696C13 2.19228 10.8077 0 8.11306 0Z" fill="#4D3F98"/>
</svg>
