<svg width="15" height="15" viewBox="0 0 15 15" fill="none" xmlns="http://www.w3.org/2000/svg">
<path d="M3.55082 8.73019L3.69196 8.256C3.45543 8.18605 3.24016 8.05805 3.06576 7.88364C2.89135 7.70923 2.76334 7.49396 2.6934 7.25744L2.21924 7.39857C2.31251 7.71398 2.48321 8.00104 2.71578 8.23362C2.94836 8.4662 3.23542 8.6369 3.55082 8.73019Z" fill="#ED3074"/>
<path d="M1.64246 8.31744C1.64275 8.57976 1.74709 8.83126 1.93259 9.01675C2.11808 9.20224 2.36957 9.30658 2.6319 9.30688V8.81216C2.50074 8.81201 2.37499 8.75984 2.28224 8.66709C2.1895 8.57434 2.13733 8.4486 2.13718 8.31744H1.64246Z" fill="#ED3074"/>
<path d="M15 11.9626C15.0015 11.4016 14.8918 10.8458 14.677 10.3275C14.4623 9.80913 14.1469 9.33853 13.7491 8.9429L12.5676 7.76139C11.714 6.90733 11.1006 5.84344 10.7892 4.67687L10.3082 2.87351L10.3182 2.83377C10.4756 2.20363 10.4025 1.53798 10.1122 0.95698L9.7793 0.291263C9.7582 0.249076 9.72547 0.213802 9.68499 0.189599C9.6445 0.165395 9.59793 0.153273 9.55079 0.154659C9.50364 0.156046 9.45787 0.170885 9.41887 0.197426C9.37988 0.223967 9.34928 0.261104 9.3307 0.304458L8.98279 1.11624L8.73381 1.054C8.30049 0.946019 7.84728 0.946019 7.41396 1.054L7.11323 1.12918L6.02985 0.587481C5.89058 0.517667 5.73285 0.49352 5.57908 0.518471C5.4253 0.543422 5.2833 0.616202 5.17325 0.726469L4.93543 0.964288C4.82517 1.07434 4.75239 1.21634 4.72744 1.37012C4.70249 1.5239 4.72663 1.68163 4.79643 1.8209L5.15749 2.54302C5.4845 3.19862 5.99884 3.74234 6.63529 4.10521L7.30412 4.48739L7.2579 4.73834C7.15865 4.66971 7.04413 4.6264 6.92431 4.61218C6.80449 4.59796 6.68301 4.61327 6.57046 4.65677C6.53348 4.50185 6.44543 4.3639 6.32049 4.26513C6.19554 4.16636 6.04099 4.11253 5.88172 4.11231H5.16397L4.53341 3.79703C4.55787 3.77398 4.57736 3.74617 4.59068 3.71531C4.604 3.68445 4.61086 3.6512 4.61085 3.61758V3.12286C4.61062 2.92612 4.53237 2.7375 4.39325 2.59838C4.25413 2.45926 4.06551 2.381 3.86877 2.38078H2.75086L0.84624 0L0.459921 0.30908L2.4388 2.78268C2.46198 2.81165 2.49138 2.83503 2.52481 2.8511C2.55825 2.86716 2.59487 2.8755 2.63196 2.8755H3.86877C3.93435 2.87558 3.99722 2.90166 4.04359 2.94804C4.08997 2.99441 4.11605 3.05728 4.11613 3.12286V3.37022H2.63196V3.86494H3.56302L4.99495 4.58091C5.02929 4.59809 5.06717 4.60703 5.10557 4.60703H5.88172C5.93827 4.60708 5.99248 4.62957 6.03247 4.66956C6.07245 4.70954 6.09495 4.76375 6.09501 4.8203V5.08472L2.75708 4.86218L1.83568 3.71044C1.8253 3.69746 1.81365 3.68556 1.80088 3.67493L0.316719 2.43813L0 2.81816L1.46497 4.03899L2.4388 5.25626C2.46024 5.28306 2.48702 5.30511 2.51744 5.321C2.54786 5.3369 2.58126 5.34628 2.61551 5.34857L6.13302 5.58306C6.16978 5.69329 6.23188 5.79335 6.31432 5.87523L6.00272 6.71655L5.54074 6.17758C5.51752 6.15048 5.48871 6.12873 5.45629 6.11382C5.42387 6.09891 5.38861 6.09119 5.35293 6.09119H3.37404C3.30844 6.09119 3.24552 6.11725 3.19914 6.16364C3.15275 6.21003 3.12669 6.27295 3.12668 6.33855V6.83327C3.12691 7.03001 3.20516 7.21864 3.34428 7.35776C3.4834 7.49687 3.67202 7.57513 3.86877 7.57535H4.24627L5.23435 8.78298C4.79555 9.88488 4.10097 10.8666 3.20795 11.6472C2.31493 12.4277 1.24907 12.9846 0.0983613 13.272L0.218358 13.752C1.40065 13.4568 2.49955 12.8945 3.43064 12.1083C4.36173 11.3222 5.10024 10.3331 5.58944 9.21698L6.27788 10.0584L5.64169 13.512H4.85821C4.7926 13.512 4.72969 13.5381 4.6833 13.5845C4.63691 13.6308 4.61085 13.6938 4.61085 13.7594V14.2541C4.61107 14.4508 4.68933 14.6394 4.82845 14.7786C4.96756 14.9177 5.15619 14.9959 5.35293 14.9962H7.33181C7.38899 14.9962 7.44441 14.9764 7.48863 14.9401C7.53286 14.9039 7.56315 14.8534 7.57437 14.7973L8.38113 10.7635L8.51579 11.1674C8.60683 11.4413 8.76948 11.6858 8.98686 11.8756C9.20425 12.0655 9.46846 12.1937 9.7521 12.247C9.82499 12.5124 9.94967 12.7607 10.1189 12.9778L10.5356 13.512H8.81597C8.75037 13.512 8.68745 13.5381 8.64106 13.5845C8.59468 13.6308 8.56861 13.6938 8.56861 13.7594V14.2541C8.56882 14.4508 8.64705 14.6394 8.78613 14.7785C8.92523 14.9177 9.11382 14.9959 9.31054 14.9962L12.0316 14.9962H12.0317C12.4218 14.9973 12.8082 14.9209 13.1686 14.7714C13.5289 14.6219 13.856 14.4024 14.1308 14.1255C14.2704 13.9857 14.3958 13.8324 14.5053 13.668V14.9962H15V12.0278L14.9999 12.0279C14.9999 12.0249 15 12.022 15 12.019V11.9626ZM5.52306 1.07631C5.55974 1.03955 5.60708 1.01529 5.65833 1.00697C5.70959 0.99865 5.76217 1.0067 5.80859 1.02996L6.15107 1.2012L6.10358 1.23417C6.01651 1.27801 5.9216 1.30413 5.82435 1.31104C5.72711 1.31795 5.62946 1.3055 5.53706 1.27442L5.37798 1.22139L5.52306 1.07631ZM6.79643 2.87215L5.83034 2.71113C5.74455 2.58688 5.66757 2.45677 5.59997 2.32175L5.51784 2.15748L6.87775 2.38413L6.79643 2.87215ZM5.43561 8.24776L4.55493 7.17137C4.53173 7.14301 4.50252 7.12015 4.46941 7.10446C4.43631 7.08877 4.40013 7.08063 4.36349 7.08063H3.86877C3.80318 7.08056 3.74031 7.05447 3.69394 7.0081C3.64757 6.96172 3.62148 6.89885 3.62141 6.83327V6.58591H5.23915L5.80612 7.24737L5.43561 8.24776ZM6.39534 9.42076L5.79877 8.69161L6.1745 7.67714L6.62065 8.19765L6.39534 9.42076ZM6.73591 7.57194L6.3711 7.14633L6.76326 6.0875C6.78755 6.08991 6.81218 6.09119 6.83709 6.09119C6.89622 6.09117 6.95514 6.08407 7.01258 6.07004L6.73591 7.57194ZM6.83709 5.59647C6.78817 5.59647 6.74034 5.58196 6.69966 5.55478C6.65899 5.5276 6.62728 5.48897 6.60856 5.44377C6.58984 5.39857 6.58494 5.34883 6.59448 5.30085C6.60403 5.25287 6.62759 5.20879 6.66218 5.1742C6.69677 5.1396 6.74085 5.11604 6.78883 5.1065C6.83682 5.09696 6.88655 5.10185 6.93175 5.12058C6.97695 5.1393 7.01558 5.171 7.04276 5.21168C7.06994 5.25236 7.08445 5.30018 7.08445 5.34911C7.08438 5.41469 7.05829 5.47756 7.01192 5.52393C6.96555 5.57031 6.90267 5.59639 6.83709 5.59647ZM7.46855 2.35466L7.68979 1.91218L8.18451 2.15954L7.96327 2.60202L7.46855 2.35466ZM7.66969 5.23369L7.79427 4.55738L10.0791 3.93425L10.2166 4.45002L7.66969 5.23369ZM12.279 10.049L11.8251 10.0489H11.8245C11.6079 10.0487 11.3933 10.0915 11.1933 10.1749C10.9933 10.2582 10.8118 10.3803 10.6594 10.5343L10.6396 10.5541C10.3771 10.8172 10.214 11.1632 10.178 11.5331H9.68179C9.71902 11.0317 9.93472 10.5602 10.2898 10.2042L10.3096 10.1844C10.5079 9.98443 10.7439 9.82574 11.0039 9.71755C11.264 9.60936 11.5429 9.55382 11.8245 9.55414H11.8253L12.279 9.55423V10.049Z" fill="#ED3074"/>
</svg>
