<svg width="10" height="10" viewBox="0 0 10 10" fill="none" xmlns="http://www.w3.org/2000/svg">
<path d="M5.8835 8.88236C5.80277 8.90248 5.72047 8.92035 5.63877 8.9354C5.42521 8.97511 5.28402 9.18053 5.32352 9.3943C5.34303 9.49948 5.40275 9.58707 5.48384 9.64426C5.56741 9.70308 5.67377 9.72964 5.78215 9.70948C5.87944 9.69142 5.97749 9.67019 6.0737 9.64617C6.28459 9.59368 6.41307 9.38001 6.36046 9.16921C6.30797 8.95821 6.09452 8.82983 5.8835 8.88236Z" fill="#ED3074"/>
<path d="M8.79439 3.60657C8.82196 3.68967 8.8746 3.7575 8.94108 3.80437C9.03965 3.87381 9.16863 3.89717 9.29172 3.85646C9.49809 3.78793 9.6099 3.56538 9.54163 3.3591C9.51053 3.26507 9.47601 3.17073 9.43925 3.07889C9.35852 2.87705 9.12959 2.77878 8.92767 2.85951C8.72596 2.94021 8.62766 3.16922 8.70845 3.37112C8.73934 3.44832 8.76828 3.52756 8.79439 3.60657Z" fill="#ED3074"/>
<path d="M7.16268 8.32041C7.09325 8.36625 7.02159 8.41061 6.94941 8.45218C6.76108 8.56083 6.69658 8.80158 6.80517 8.98985C6.83465 9.04105 6.87392 9.08292 6.91915 9.11491C7.04055 9.20034 7.20544 9.21313 7.34271 9.13404C7.42853 9.08454 7.51387 9.03188 7.59655 8.9772C7.77783 8.85742 7.82773 8.61321 7.7079 8.43183C7.5881 8.25038 7.34402 8.20054 7.16268 8.32041Z" fill="#ED3074"/>
<path d="M9.78633 4.70592C9.77776 4.48867 9.5948 4.31958 9.37751 4.32806C9.1605 4.33663 8.9913 4.51967 8.99982 4.73683C9.00308 4.81987 9.00392 4.90414 9.00201 4.98708C8.99896 5.12332 9.06559 5.24476 9.16913 5.31775C9.23081 5.36119 9.30566 5.38748 9.38683 5.38933C9.60406 5.39415 9.78407 5.22184 9.78889 5.00449C9.79106 4.90538 9.79024 4.80496 9.78633 4.70592Z" fill="#ED3074"/>
<path d="M8.73007 7.28496C8.55589 7.15425 8.30945 7.18974 8.179 7.36363C8.12904 7.43022 8.07642 7.49599 8.02255 7.55932C7.88176 7.72475 7.90165 7.97323 8.06706 8.11414C8.07649 8.12214 8.08602 8.12948 8.09591 8.13639C8.26035 8.25233 8.4889 8.22569 8.62186 8.06965C8.68619 7.99409 8.74891 7.91552 8.80861 7.83598C8.93909 7.66209 8.90378 7.41547 8.73007 7.28496Z" fill="#ED3074"/>
<path d="M9.30884 5.86209C9.10144 5.79706 8.88058 5.91252 8.81559 6.11994C8.79072 6.19918 8.76315 6.2788 8.73339 6.35678C8.66805 6.52844 8.73066 6.71731 8.87418 6.81853C8.90051 6.83703 8.92951 6.85271 8.96101 6.86462C9.16407 6.94212 9.39146 6.84023 9.46886 6.63706C9.5042 6.54435 9.53699 6.44962 9.56664 6.35541C9.63156 6.14795 9.51619 5.92713 9.30884 5.86209Z" fill="#ED3074"/>
<path d="M4.16683 8.93893C3.81496 8.87575 3.47742 8.76816 3.15736 8.61809C3.15357 8.61611 3.15018 8.61386 3.1462 8.61205C3.07078 8.57655 2.99548 8.53851 2.9225 8.49878C2.92224 8.49848 2.92178 8.49829 2.92138 8.49813C2.78747 8.42438 2.65679 8.34278 2.52982 8.25339C0.678474 6.94911 0.233336 4.38164 1.53756 2.53012C1.82116 2.12766 2.16436 1.7919 2.54697 1.52578C2.55169 1.5225 2.5564 1.51924 2.56107 1.51593C3.90935 0.586837 5.74009 0.524223 7.17174 1.47895L6.86426 1.92328C6.77878 2.04695 6.83137 2.13707 6.98102 2.1236L8.31666 2.00401C8.4665 1.99054 8.55611 1.86091 8.51581 1.71619L8.15714 0.423787C8.11699 0.2789 8.01419 0.261557 7.92862 0.385208L7.62042 0.830582C6.56978 0.125236 5.30964 -0.143722 4.05889 0.0731873C3.93292 0.0949919 3.80871 0.121679 3.68621 0.152745C3.68526 0.152913 3.6845 0.153018 3.68375 0.153187C3.67901 0.154344 3.67421 0.155881 3.66961 0.157165C2.59106 0.434163 1.65005 1.06328 0.978572 1.96089C0.972911 1.9676 0.967082 1.97417 0.961737 1.98147C0.939408 2.01155 0.917248 2.04232 0.895551 2.07309C0.860069 2.12352 0.825093 2.17521 0.791632 2.2269C0.787444 2.23313 0.784245 2.23946 0.780584 2.24576C0.226476 3.10449 -0.0407927 4.09728 0.00504276 5.10799C0.00514798 5.11132 0.00495858 5.11466 0.00504276 5.11807C0.0094832 5.2168 0.0173118 5.3169 0.0279394 5.41544C0.0285076 5.4218 0.0299176 5.42782 0.0309909 5.43418C0.0419763 5.53327 0.0557606 5.63259 0.0730383 5.73189C0.248636 6.74504 0.72652 7.65673 1.44261 8.36612C1.44427 8.36778 1.446 8.36959 1.44768 8.37132C1.44827 8.37197 1.44892 8.37231 1.44949 8.37292C1.64188 8.5627 1.85115 8.73823 2.07648 8.89694C2.66615 9.31249 3.32277 9.58718 4.02793 9.71373C4.2419 9.75218 4.44628 9.60974 4.48467 9.39586C4.52303 9.18183 4.38073 8.97726 4.16683 8.93893Z" fill="#ED3074"/>
<path d="M4.65351 1.71552C4.47752 1.71552 4.33496 1.85821 4.33496 2.03398V5.20674L7.2364 6.70677C7.2831 6.73096 7.3331 6.74234 7.3823 6.74234C7.49754 6.74234 7.60885 6.67958 7.66544 6.57007C7.74614 6.41378 7.68507 6.22177 7.52879 6.14105L4.97171 4.81893V2.03398C4.97169 1.85821 4.8293 1.71552 4.65351 1.71552Z" fill="#ED3074"/>
</svg>
