<svg width="15" height="15" viewBox="0 0 15 15" fill="none" xmlns="http://www.w3.org/2000/svg">
<path d="M2.01555 8.77378H0.777107C0.640313 8.77378 0.529419 8.88467 0.529419 9.02146V14.2227C0.529419 14.3595 0.640313 14.4704 0.777107 14.4704H2.01555C2.15234 14.4704 2.26324 14.3595 2.26324 14.2227V9.02146C2.26324 8.88467 2.15234 8.77378 2.01555 8.77378Z" fill="#4D3F98"/>
<path d="M14.3011 10.5374C14.1873 10.3993 14.0004 10.3453 13.8305 10.4014L9.24823 11.9293C9.1214 11.9724 8.98834 11.9942 8.8544 11.994H6.65245C6.26127 11.9942 5.87886 12.1099 5.55321 12.3266L5.37388 12.4475C5.26021 12.5238 5.10618 12.4935 5.02984 12.3799C4.95351 12.2662 4.98379 12.1122 5.09746 12.0358L5.27852 11.9145C5.68556 11.6436 6.16352 11.4989 6.65245 11.4986H8.1584C8.31595 11.2882 8.33053 11.0033 8.1953 10.7779C8.18768 10.7653 8.18121 10.752 8.17598 10.7383C7.99144 10.4448 7.67079 10.2649 7.32418 10.2602H6.02828C5.45886 10.2595 4.90651 10.0657 4.4614 9.71065C4.10443 9.4257 3.66139 9.27019 3.20463 9.26953H2.75879V14.2231H8.77762C9.05026 14.2231 9.31768 14.1482 9.55065 14.0066L14.1918 11.1806C14.2961 11.1182 14.369 11.0144 14.3922 10.8951C14.4154 10.7757 14.3868 10.6522 14.3135 10.5552C14.3092 10.5493 14.3053 10.5436 14.3011 10.5374Z" fill="#4D3F98"/>
<path d="M12.9138 1.59116H11.4276C11.2908 1.59116 11.1799 1.70205 11.1799 1.83884C11.1799 1.97563 11.2908 2.08652 11.4276 2.08652H12.9138C13.0505 2.08652 13.1614 1.97563 13.1614 1.83884C13.1614 1.70205 13.0505 1.59116 12.9138 1.59116Z" fill="#4D3F98"/>
<path d="M13.657 0.352943H10.6847C10.3784 0.353172 10.0894 0.495053 9.90197 0.737263C9.71449 0.979472 9.64959 1.29477 9.72616 1.59133H8.70321C8.01924 1.59133 7.46477 2.14578 7.46477 2.82972V2.93375C7.36034 2.96975 7.26548 3.02904 7.18736 3.10712L6.1966 4.09784C6.05756 4.23728 5.97922 4.426 5.97864 4.62291V8.27864C5.97864 8.68901 6.31132 9.02168 6.7217 9.02168H8.70321C9.11359 9.02168 9.44627 8.68901 9.44627 8.27864V4.62291C9.4457 4.426 9.36736 4.23728 9.22831 4.09784L8.23756 3.10712C8.15943 3.02904 8.06457 2.96975 7.96014 2.93375V2.82972C7.96137 2.41987 8.29333 2.08791 8.70321 2.08669H9.89707L10.5386 3.90217C10.6775 4.29874 11.0521 4.56404 11.4724 4.56347H12.8693C13.2896 4.56404 13.6642 4.29874 13.8031 3.90217L14.5908 1.67307C14.6976 1.36999 14.6508 1.03392 14.4652 0.771554C14.2797 0.509191 13.9784 0.353137 13.657 0.352943ZM8.45552 6.29722V7.78328C8.45552 7.92007 8.34463 8.03096 8.20783 8.03096H7.21708C7.08029 8.03096 6.96939 7.92007 6.96939 7.78328V6.29722C6.96939 6.16043 7.08029 6.04954 7.21708 6.04954H8.20783C8.34463 6.04954 8.45552 6.16043 8.45552 6.29722ZM8.20783 4.56347C8.20838 4.80544 8.03404 5.01239 7.79548 5.05294C7.55693 5.0935 7.32399 4.95578 7.24454 4.72723C7.1651 4.49868 7.2624 4.24618 7.47468 4.13003C7.62244 4.04746 7.80247 4.04746 7.95024 4.13003C8.10871 4.21674 8.20742 4.38283 8.20783 4.56347ZM12.9139 2.58205H11.4278C11.1137 2.58116 10.834 2.38285 10.7293 2.08669C10.6699 1.92692 10.6699 1.7511 10.7293 1.59133C10.834 1.29518 11.1137 1.09686 11.4278 1.09598H12.9139C13.3243 1.09598 13.657 1.42865 13.657 1.83901C13.657 2.24938 13.3243 2.58205 12.9139 2.58205Z" fill="#4D3F98"/>
<path d="M12.7386 6.47232L12.8412 6.36978C12.8876 6.32334 12.9137 6.26036 12.9137 6.19467V5.05882H11.4276V6.19467C11.4276 6.26036 11.4537 6.32334 11.5002 6.36978L11.6027 6.47232C11.6492 6.51876 11.6753 6.58175 11.6753 6.64743V7.72483C11.6753 7.76328 11.6663 7.8012 11.649 7.83554L11.4831 8.16792C11.4483 8.23762 11.4483 8.31965 11.4831 8.38935L11.6295 8.68235C11.6588 8.74108 11.6636 8.80905 11.6429 8.87133L11.4772 9.37189C11.4475 9.46088 11.4707 9.55896 11.5371 9.62526L11.9968 10.085C12.0935 10.1816 12.2503 10.1816 12.347 10.085L12.8067 9.62526C12.8731 9.55896 12.8963 9.46088 12.8667 9.37189L12.6997 8.87133C12.679 8.80905 12.6838 8.74108 12.7131 8.68235L12.8595 8.38935C12.8943 8.31965 12.8943 8.23762 12.8595 8.16792L12.6935 7.83554C12.6758 7.8013 12.6664 7.76338 12.6661 7.72483V6.64743C12.6661 6.58175 12.6922 6.51876 12.7386 6.47232Z" fill="#4D3F98"/>
</svg>
