<svg width="28" height="28" viewBox="0 0 28 28" fill="none" xmlns="http://www.w3.org/2000/svg">
<path d="M6.39696 5.16639C6.62348 5.16639 6.80712 4.98275 6.80712 4.75623C6.80712 4.52972 6.62348 4.34608 6.39696 4.34608C6.17045 4.34608 5.9868 4.52972 5.9868 4.75623C5.9868 4.98275 6.17039 5.16639 6.39696 5.16639ZM3.11571 5.16639C3.34223 5.16639 3.52587 4.98275 3.52587 4.75623C3.52587 4.52972 3.34223 4.34608 3.11571 4.34608C2.8892 4.34608 2.70555 4.52972 2.70555 4.75623C2.70555 4.98275 2.88914 5.16639 3.11571 5.16639ZM4.75634 5.16639C4.98285 5.16639 5.16649 4.98275 5.16649 4.75623C5.16649 4.52972 4.98285 4.34608 4.75634 4.34608C4.52982 4.34608 4.34618 4.52972 4.34618 4.75623C4.34618 4.98275 4.52977 5.16639 4.75634 5.16639ZM4.66638 9.51147C4.66889 9.51153 4.67141 9.51153 4.67392 9.51153L8.38223 9.51246H8.38245C8.63866 9.51246 8.85615 9.34648 8.9238 9.09941C8.9915 8.85222 8.88874 8.59852 8.66824 8.46809L8.10425 8.13439C9.01075 7.23593 9.5206 6.01005 9.51251 4.72566C9.49627 2.1571 7.39397 0.0374702 4.82617 0.000501442C2.16535 -0.0377251 0 2.11461 0 4.75634C0 7.28963 2.08731 9.45662 4.66638 9.51147ZM1.99336 1.95306C2.74969 1.20756 3.74938 0.805884 4.81441 0.820704C6.93919 0.851275 8.67874 2.60532 8.69219 4.7308C8.69947 5.87755 8.20772 6.96807 7.343 7.72265C7.19841 7.84876 7.12266 8.03803 7.14016 8.22894C7.15766 8.41975 7.26666 8.5919 7.43154 8.68941L7.43564 8.69182L4.67797 8.69116C2.54614 8.65026 0.820312 6.89402 0.820312 4.75634C0.820312 3.69426 1.23692 2.69873 1.99336 1.95306ZM27.5898 27.1797H27.1797V21.0716C27.1797 19.4714 26.2341 18.0182 24.7661 17.3675L22.6045 16.441C23.1305 16.2751 23.6056 15.9791 23.9923 15.5686C24.5756 14.9492 24.9102 14.1088 24.9102 13.2629C24.9102 12.4855 24.6386 11.7519 24.1247 11.1409C23.4819 10.3777 23.1279 9.40762 23.1279 8.40936V6.44389C23.1279 4.72244 22.4575 3.10434 21.2402 1.88771C20.023 0.670368 18.4048 9.25478e-06 16.6835 9.25478e-06C13.1304 9.25478e-06 10.2397 2.89068 10.2397 6.44384V8.34532C10.2399 9.37826 9.83396 10.3642 9.17432 11.159C8.34411 12.1592 8.17163 13.5116 8.72424 14.6883C9.1344 15.5618 9.87421 16.1893 10.7599 16.4549L8.61339 17.3883C7.10746 18.0221 6.13435 19.4872 6.13435 21.1209V25.9493C6.13435 26.1758 6.31794 26.3594 6.54451 26.3594C6.77108 26.3594 6.95466 26.1758 6.95466 25.9493V21.1209C6.95466 19.8182 7.73062 18.6498 8.93605 18.1425L11.6266 16.9725V19.4414H10.3905C10.0421 19.4414 9.70867 19.5899 9.47565 19.8489C9.24268 20.1079 9.13013 20.4552 9.16688 20.8015L9.84298 27.1797H0.410156C0.183586 27.1797 0 27.3633 0 27.5898C0 27.8164 0.183586 28 0.410156 28H27.5898C27.8164 28 28 27.8164 28 27.5898C28 27.3633 27.8164 27.1797 27.5898 27.1797ZM23.4971 11.6691C23.8849 12.1301 24.0898 12.6812 24.0898 13.2628C24.0898 13.9019 23.8366 14.5373 23.3951 15.0061C22.9277 15.5024 22.2855 15.7757 21.5869 15.7757H21.0523L20.3502 15.4748C19.7369 15.2117 19.3173 14.6478 19.2316 13.9987C20.4971 13.3173 21.3594 11.98 21.3594 10.4448V7.36133C21.4794 7.36947 21.5993 7.37391 21.7189 7.37391C21.9162 7.37391 22.1127 7.36269 22.3076 7.3406V8.4093C22.3076 9.60062 22.7301 10.7583 23.4971 11.6691ZM16.7832 18.1442C15.3159 18.1701 13.8596 17.9842 12.4469 17.5924V16.6158L12.5655 16.5642C12.5664 16.5639 12.5674 16.5634 12.5683 16.563L13.3001 16.2449C14.1146 15.8908 14.6902 15.1655 14.8647 14.318C15.2218 14.4218 15.5988 14.4786 15.989 14.4786H17.3255C17.7173 14.4786 18.0957 14.4214 18.454 14.3168C18.6343 15.1604 19.212 15.8792 20.0269 16.2287L20.8079 16.5634C20.8084 16.5636 20.8089 16.5639 20.8094 16.564L20.8672 16.5888V17.5118C19.5398 17.9073 18.1675 18.12 16.7832 18.1442ZM20.8671 18.3658V19.4415H12.4469V18.4418C13.7765 18.7904 15.1418 18.9668 16.5162 18.9668C16.61 18.9668 16.7038 18.966 16.7975 18.9644C18.1751 18.9403 19.5414 18.739 20.8671 18.3658ZM22.3076 6.51351C21.1778 6.66614 19.9043 6.3635 19.0269 5.68368C18.8479 5.54499 18.5903 5.57759 18.4515 5.75669C18.3127 5.93573 18.3454 6.19337 18.5245 6.33211C19.0981 6.7765 19.7899 7.08953 20.539 7.24736V9.4803C20.3419 9.92951 20.1225 10.3031 19.6279 10.7112C19.4196 10.883 19.1917 11.0257 18.9476 11.1389C18.7482 10.7499 18.3434 10.4829 17.8771 10.4829H16.9159C16.253 10.4829 15.7136 11.0223 15.7136 11.6852C15.7136 12.3481 16.253 12.8875 16.9159 12.8875H17.8771C18.435 12.8875 18.9054 12.5055 19.0404 11.9893C19.5891 11.7802 20.4837 11.0344 20.4839 11.0341C20.2062 12.5253 18.8961 13.658 17.3256 13.658H15.989C14.2171 13.658 12.7755 12.2165 12.7755 10.4446V7.27416C14.1686 7.05579 15.4847 6.58438 16.6916 5.87049C18.5293 4.78347 19.7081 3.36302 20.4195 2.24077C21.6367 3.32484 22.3291 4.87901 22.3076 6.51351ZM18.259 11.6863C18.2584 11.8965 18.0873 12.0673 17.8771 12.0673H16.9159C16.7052 12.0673 16.5339 11.8959 16.5339 11.6853C16.5339 11.4747 16.7053 11.3033 16.9159 11.3033H17.8771C18.0873 11.3033 18.2583 11.474 18.259 11.684V11.6863ZM11.06 6.44384C11.06 3.343 13.5827 0.820321 16.6835 0.820321C17.7956 0.820321 18.8583 1.14134 19.7664 1.73896C19.1117 2.78836 18.0098 4.13783 16.274 5.16464C15.0831 5.86902 13.7769 6.31871 12.3915 6.50126H12.3659C12.3657 6.50126 12.3656 6.50126 12.3653 6.50126C12.3651 6.50126 12.365 6.50126 12.3648 6.50126H11.0599V6.44384H11.06ZM9.46668 14.3396C9.05078 13.4538 9.18061 12.4358 9.80503 11.6835C10.5885 10.7395 11.0609 9.57316 11.06 8.34532V7.32157H11.9552V10.4448C11.9552 11.9809 12.8186 13.3189 14.0853 13.9999C14.006 14.6539 13.5877 15.2252 12.9729 15.4925L12.3217 15.7757H11.7272C10.7488 15.7757 9.88269 15.2254 9.46668 14.3396ZM23.7449 20.7151L23.0596 27.1797H10.6679L9.9826 20.7151C9.97019 20.5979 10.0067 20.4852 10.0855 20.3976C10.1643 20.31 10.2727 20.2618 10.3905 20.2618H23.337C23.4548 20.2618 23.5631 20.31 23.642 20.3976C23.7208 20.4852 23.7573 20.5979 23.7449 20.7151ZM26.3594 27.1797H23.8845L24.5606 20.8017C24.5973 20.4552 24.4847 20.108 24.2518 19.849C24.0188 19.59 23.6854 19.4415 23.337 19.4415H21.6874V16.9404L24.4383 18.1194C25.6053 18.6368 26.3594 19.7956 26.3594 21.0716V27.1797ZM16.8637 22.1621C16.0043 22.1621 15.3051 22.8613 15.3051 23.7207C15.3051 24.5801 16.0043 25.2793 16.8637 25.2793C17.7231 25.2793 18.4223 24.5801 18.4223 23.7207C18.4223 22.8613 17.7231 22.1621 16.8637 22.1621ZM16.8637 24.459C16.4566 24.459 16.1254 24.1278 16.1254 23.7207C16.1254 23.3136 16.4566 22.9824 16.8637 22.9824C17.2708 22.9824 17.602 23.3136 17.602 23.7207C17.602 24.1278 17.2709 24.459 16.8637 24.459Z" fill="black"/>
</svg>
