<svg width="33" height="33" viewBox="0 0 33 33" fill="none" xmlns="http://www.w3.org/2000/svg">
<path d="M23.5553 32.2999C18.7312 32.2999 14.8063 28.375 14.8063 23.5509C14.8063 18.7269 18.7312 14.8019 23.5553 14.8019C28.3793 14.8019 32.3042 18.7269 32.3042 23.5509C32.3042 28.375 28.3793 32.2999 23.5553 32.2999ZM23.5553 16.1479C19.4728 16.1479 16.1523 19.4685 16.1523 23.5509C16.1523 27.6333 19.4728 30.9539 23.5553 30.9539C27.6377 30.9539 30.9582 27.6333 30.9582 23.5509C30.9582 19.4685 27.6377 16.1479 23.5553 16.1479Z" fill="black"/>
<path d="M23.5548 28.2619C23.1833 28.2619 22.8818 27.9604 22.8818 27.5889V22.205C22.8818 21.8335 23.1833 21.532 23.5548 21.532C23.9263 21.532 24.2278 21.8335 24.2278 22.205V27.5889C24.2278 27.9604 23.9263 28.2619 23.5548 28.2619Z" fill="black"/>
<path d="M23.5548 20.186C23.9265 20.186 24.2278 19.8847 24.2278 19.513C24.2278 19.1413 23.9265 18.84 23.5548 18.84C23.1831 18.84 22.8818 19.1413 22.8818 19.513C22.8818 19.8847 23.1831 20.186 23.5548 20.186Z" fill="black"/>
<path d="M11.8974 20.9262C11.7978 20.9262 11.6968 20.9034 11.5999 20.8576C9.94701 20.0433 8.16626 19.7364 6.30475 19.9396C5.72327 20.0083 5.13911 19.8252 4.70435 19.4376C4.28171 19.0607 4.03809 18.5196 4.03809 17.9516V2.13613C4.03809 1.12932 4.7905 0.263843 5.78788 0.123859C9.00212 -0.351278 12.036 0.542464 14.8061 2.79163C17.5761 0.54381 20.606 -0.35397 23.8283 0.125205C24.8216 0.263843 25.574 1.12932 25.574 2.13613V11.437C25.574 11.8085 25.2725 12.11 24.901 12.11C24.5295 12.11 24.228 11.8085 24.228 11.437V2.13613C24.228 1.79693 23.9737 1.50351 23.6358 1.4564C20.6046 1.00549 17.8615 1.89788 15.2489 4.178C14.9959 4.39875 14.6176 4.39875 14.3646 4.178C11.7493 1.89654 9.00885 1.00549 5.98036 1.45505C5.63848 1.50351 5.38408 1.79559 5.38408 2.13613V17.9516C5.38408 18.1387 5.4608 18.3096 5.59944 18.4321C5.7475 18.564 5.94536 18.6259 6.15399 18.6017C8.27529 18.3662 10.3077 18.7188 12.1962 19.6489C12.53 19.8131 12.6659 20.2169 12.5031 20.5507C12.3846 20.7876 12.1464 20.9262 11.8974 20.9262Z" fill="black"/>
<path d="M28.939 13.4559C28.5675 13.4559 28.266 13.1544 28.266 12.7829V4.70696C28.266 4.33546 27.9645 4.03396 27.593 4.03396H24.901C24.5295 4.03396 24.228 3.73246 24.228 3.36096C24.228 2.98946 24.5295 2.68796 24.901 2.68796H27.593C28.7062 2.68796 29.612 3.59382 29.612 4.70696V12.7829C29.612 13.1544 29.3105 13.4559 28.939 13.4559Z" fill="black"/>
<path d="M11.441 22.8779H2.019C0.905856 22.8779 0 21.9721 0 20.8589V4.70696C0 3.61401 0.900472 2.70815 2.00688 2.68796H4.71099C5.08249 2.68796 5.38399 2.98946 5.38399 3.36096C5.38399 3.73246 5.08249 4.03396 4.71099 4.03396H2.019C1.65423 4.04069 1.346 4.34219 1.346 4.70696V20.8589C1.346 21.2304 1.6475 21.5319 2.019 21.5319H11.441C11.8125 21.5319 12.114 21.8334 12.114 22.2049C12.114 22.5764 11.8125 22.8779 11.441 22.8779Z" fill="black"/>
<path d="M14.8057 16.1479C14.4342 16.1479 14.1327 15.8464 14.1327 15.4749V3.36096C14.1327 2.98946 14.4342 2.68796 14.8057 2.68796C15.1772 2.68796 15.4787 2.98946 15.4787 3.36096V15.4749C15.4787 15.8464 15.1772 16.1479 14.8057 16.1479Z" fill="black"/>
</svg>
