<svg width="26" height="26" viewBox="0 0 26 26" fill="none" xmlns="http://www.w3.org/2000/svg">
<path d="M9 25C9 25.2652 8.89464 25.5196 8.70711 25.7071C8.51957 25.8946 8.26522 26 8 26H3C2.20435 26 1.44129 25.6839 0.87868 25.1213C0.316071 24.5587 0 23.7956 0 23V3C0 2.20435 0.316071 1.44129 0.87868 0.87868C1.44129 0.316071 2.20435 0 3 0H8C8.26522 0 8.51957 0.105357 8.70711 0.292893C8.89464 0.48043 9 0.734784 9 1C9 1.26522 8.89464 1.51957 8.70711 1.70711C8.51957 1.89464 8.26522 2 8 2H3C2.73478 2 2.48043 2.10536 2.29289 2.29289C2.10536 2.48043 2 2.73478 2 3V23C2 23.2652 2.10536 23.5196 2.29289 23.7071C2.48043 23.8946 2.73478 24 3 24H8C8.26522 24 8.51957 24.1054 8.70711 24.2929C8.89464 24.4804 9 24.7348 9 25ZM25.707 12.293L20.707 7.293C20.5184 7.11084 20.2658 7.01005 20.0036 7.01233C19.7414 7.0146 19.4906 7.11977 19.3052 7.30518C19.1198 7.49059 19.0146 7.7414 19.0123 8.0036C19.01 8.2658 19.1108 8.5184 19.293 8.707L22.586 12H6C5.73478 12 5.48043 12.1054 5.29289 12.2929C5.10536 12.4804 5 12.7348 5 13C5 13.2652 5.10536 13.5196 5.29289 13.7071C5.48043 13.8946 5.73478 14 6 14H22.586L19.293 17.293C19.1975 17.3852 19.1213 17.4956 19.0689 17.6176C19.0165 17.7396 18.9889 17.8708 18.9877 18.0036C18.9866 18.1364 19.0119 18.2681 19.0622 18.391C19.1125 18.5138 19.1867 18.6255 19.2806 18.7194C19.3745 18.8133 19.4862 18.8875 19.609 18.9378C19.7319 18.9881 19.8636 19.0134 19.9964 19.0123C20.1292 19.0111 20.2604 18.9835 20.3824 18.9311C20.5044 18.8787 20.6148 18.8025 20.707 18.707L25.707 13.707C25.8945 13.5195 25.9998 13.2652 25.9998 13C25.9998 12.7348 25.8945 12.4805 25.707 12.293Z" fill="black"/>
</svg>
