<svg width="28" height="28" viewBox="0 0 28 28" fill="none" xmlns="http://www.w3.org/2000/svg">
<path d="M10.978 11.665H4.66256C4.2107 11.665 3.84436 12.0313 3.84436 12.4832C3.84436 12.9351 4.2107 13.3014 4.66256 13.3014H10.9779C11.4298 13.3014 11.7961 12.9351 11.7961 12.4832C11.7961 12.0313 11.4299 11.665 10.978 11.665Z" fill="black"/>
<path d="M10.978 8.39194H4.66256C4.2107 8.39194 3.84436 8.75827 3.84436 9.21014C3.84436 9.662 4.2107 10.0283 4.66256 10.0283H10.9779C11.4298 10.0283 11.7961 9.662 11.7961 9.21014C11.7961 8.75827 11.4299 8.39194 10.978 8.39194Z" fill="black"/>
<path d="M4.66256 6.75536H16.8646C17.3165 6.75536 17.6828 6.38902 17.6828 5.93716C17.6828 5.48529 17.3165 5.11896 16.8646 5.11896H4.66256C4.2107 5.11896 3.84436 5.48529 3.84436 5.93716C3.84436 6.38902 4.2107 6.75536 4.66256 6.75536Z" fill="black"/>
<path d="M10.978 14.9158H4.66256C4.2107 14.9158 3.84436 15.2821 3.84436 15.734C3.84436 16.1858 4.2107 16.5522 4.66256 16.5522H10.9779C11.4298 16.5522 11.7961 16.1858 11.7961 15.734C11.7961 15.2821 11.4299 14.9158 10.978 14.9158Z" fill="black"/>
<path d="M10.978 17.6433H4.66256C4.2107 17.6433 3.84436 18.0096 3.84436 18.4615C3.84436 18.9133 4.2107 19.2797 4.66256 19.2797H10.9779C11.4298 19.2797 11.7961 18.9133 11.7961 18.4615C11.7961 18.0096 11.4299 17.6433 10.978 17.6433Z" fill="black"/>
<path d="M10.978 20.9163H4.66256C4.2107 20.9163 3.84436 21.2826 3.84436 21.7345C3.84436 22.1864 4.2107 22.5527 4.66256 22.5527H10.9779C11.4298 22.5527 11.7961 22.1864 11.7961 21.7345C11.7961 21.2826 11.4299 20.9163 10.978 20.9163Z" fill="black"/>
<path d="M27.8989 14.3856C27.8955 13.9358 27.5298 13.5736 27.0808 13.5736C27.0726 13.5737 27.0638 13.5737 27.0553 13.5737C26.0541 13.5737 25.1348 12.9998 24.7094 12.1074C24.5736 11.8224 24.2861 11.6412 23.9709 11.6412C23.9688 11.6412 23.9668 11.6412 23.9648 11.6412L21.5793 11.6588V1.36367C21.5793 0.611742 20.9675 0 20.2156 0H1.36367C0.611742 0 0 0.611742 0 1.36367V26.5642C0 27.3161 0.611742 27.9278 1.36367 27.9278L20.8081 27.9279C20.8254 27.9279 20.8829 27.9239 20.8903 27.9229C21.0055 27.9109 21.1187 27.8747 21.2218 27.8137L23.0797 26.714C24.5659 25.8342 25.8001 24.5805 26.6489 23.0886C27.4985 21.5952 27.9408 19.9005 27.9277 18.1875L27.8989 14.3856ZM1.6364 1.6364H19.9428V11.6709L17.4112 11.6896C17.0934 11.692 16.8057 11.8781 16.6734 12.1669C16.259 13.0712 15.3395 13.6603 14.331 13.6678C14.114 13.6694 13.9065 13.7571 13.7542 13.9118C13.6019 14.0664 13.5172 14.2752 13.5189 14.4922L13.5477 18.2941C13.5607 20.0069 14.0286 21.695 14.9007 23.1756C15.6281 24.4105 16.6224 25.4744 17.8031 26.2916L1.6364 26.2914V1.6364ZM22.2461 25.3057L20.7979 26.1629L19.3369 25.3272C16.7972 23.8744 15.206 21.1747 15.1841 18.2816L15.1608 15.2183C16.2931 14.9867 17.2922 14.3005 17.9054 13.3224L23.4948 13.2811C24.1228 14.2503 25.1322 14.9217 26.2681 15.1364L26.2913 18.1999C26.3133 21.0929 24.7632 23.8157 22.2461 25.3057Z" fill="black"/>
<path d="M22.5388 17.389L20.219 19.8557L19.4057 18.8566C19.1204 18.5061 18.605 18.4533 18.2546 18.7386C17.9041 19.0239 17.8513 19.5393 18.1366 19.8897L19.5401 21.6137C19.689 21.7966 19.9096 21.9064 20.1454 21.9148C20.1552 21.9152 20.1649 21.9153 20.1747 21.9153C20.3999 21.9153 20.6157 21.8224 20.7706 21.6577L23.7309 18.5101C24.0405 18.1809 24.0246 17.6631 23.6954 17.3535C23.3661 17.044 22.8484 17.0599 22.5388 17.389Z" fill="black"/>
</svg>
