<svg width="24" height="24" viewBox="0 0 24 24" fill="none" xmlns="http://www.w3.org/2000/svg">
<path fill-rule="evenodd" clip-rule="evenodd" d="M4.49995 1.75534H15.75C17.6429 1.75534 18.3805 3.12126 18.3805 4.50001V12C18.3805 13.3788 17.4748 14.6832 15.7319 14.6832H6.72006L3.13261 17.5663C3.01886 17.6613 2.60733 17.7333 2.46358 17.7333C2.39469 17.7333 2.2486 17.6582 2.14629 17.6055L2.14625 17.6055C2.11491 17.5894 2.08768 17.5753 2.06804 17.5663C1.84804 17.4638 1.77551 17.2981 1.77551 17.0556V4.55556C1.77551 3.17681 2.62495 1.75534 4.49995 1.75534ZM15.75 13.25C16.44 13.25 17 12.6888 17 12V4.50001C17 3.81126 16.44 3.25001 15.75 3.25001H4.49995C3.80995 3.25001 3.24995 3.81126 3.24995 4.50001V15.6663L5.97495 13.395C6.08745 13.3013 6.2287 13.25 6.37495 13.25H15.75ZM6.37495 5.75001H13.875C14.22 5.75001 14.5 6.03001 14.5 6.37501C14.5 6.72001 14.22 7.00001 13.875 7.00001H6.37495C6.02995 7.00001 5.74995 6.72001 5.74995 6.37501C5.74995 6.03001 6.02995 5.75001 6.37495 5.75001ZM6.37495 8.25001H11.375C11.72 8.25001 12 8.53001 12 8.87501C12 9.22001 11.72 9.50001 11.375 9.50001H6.37495C6.02995 9.50001 5.74995 9.22001 5.74995 8.87501C5.74995 8.53001 6.02995 8.25001 6.37495 8.25001ZM18.8804 7.49758C18.8804 7.15258 19.155 6.86814 19.5 6.86814C21.097 6.86814 22.1528 8.12126 22.1528 9.50001L22.1501 21.5428C22.1501 21.7828 22.0126 22.0015 21.7964 22.1065C21.7089 22.1478 21.4636 22.1678 21.3723 22.1678C21.2336 22.1678 21.0948 22.1215 20.9811 22.0315L18.0031 19.6697H9.47311C8.09436 19.6697 6.79926 18.3788 6.79926 17V16.375C6.79926 16.03 7.18661 15.7191 7.53161 15.7191C7.87661 15.7191 8.24995 16.03 8.24995 16.375V17C8.24995 17.6888 8.80995 18.25 9.49995 18.25H18.25C18.3912 18.25 18.53 18.2988 18.64 18.3863L20.75 20.0738V9.50001C20.75 8.81126 20.19 8.25001 19.5 8.25001C19.155 8.25001 18.8804 7.84258 18.8804 7.49758Z" fill="#979797"/>
</svg>
