<svg width="22" height="22" viewBox="0 0 22 22" fill="none" xmlns="http://www.w3.org/2000/svg">
<path d="M20.3958 0H1.60417C0.719583 0 0 0.719583 0 1.60417V3.89583C0 4.78041 0.719583 5.5 1.60417 5.5H20.3958C21.2804 5.5 22 4.78041 22 3.89583V1.60417C22 0.719583 21.2804 0 20.3958 0Z" fill="#2C4277"/>
<path d="M1.60417 22H8.47916C9.36375 22 10.0833 21.2804 10.0833 20.3958V8.93751C10.0833 8.05293 9.36375 7.33334 8.47916 7.33334H1.60417C0.719583 7.33334 0 8.05293 0 8.93751V20.3958C0 21.2804 0.719583 22 1.60417 22Z" fill="#2C4277"/>
<path d="M20.3959 7.33334H13.5209C12.6363 7.33334 11.9167 8.05293 11.9167 8.93751V12.1458C11.9167 13.0304 12.6363 13.75 13.5209 13.75H20.3959C21.2805 13.75 22.0001 13.0304 22.0001 12.1458V8.93751C22.0001 8.05293 21.2805 7.33334 20.3959 7.33334Z" fill="#2C4277"/>
<path d="M20.3959 15.5833H13.5209C12.6363 15.5833 11.9167 16.3029 11.9167 17.1875V20.3958C11.9167 21.2804 12.6363 22 13.5209 22H20.3959C21.2805 22 22.0001 21.2804 22.0001 20.3958V17.1875C22.0001 16.3029 21.2805 15.5833 20.3959 15.5833Z" fill="#2C4277"/>
</svg>
