<svg width="23" height="22" viewBox="0 0 23 22" fill="none" xmlns="http://www.w3.org/2000/svg">
<path d="M22.959 10.2673L21.4256 7.33117C21.3945 7.27002 21.346 7.21858 21.2856 7.18284C21.2252 7.1471 21.1554 7.12853 21.0844 7.12931H20.793L20.4097 6.7623H21.0844C21.1861 6.7623 21.2836 6.72363 21.3555 6.6548C21.4274 6.58597 21.4677 6.49262 21.4677 6.39528V4.92721C21.4677 4.82987 21.4274 4.73652 21.3555 4.66769C21.2836 4.59886 21.1861 4.56019 21.0844 4.56019H20.4097L20.8889 4.10509C20.9607 4.0358 21.001 3.94213 21.001 3.84451C21.001 3.74689 20.9607 3.65322 20.8889 3.58393L19.804 2.54527C19.7316 2.47651 19.6338 2.43792 19.5318 2.43792C19.4299 2.43792 19.332 2.47651 19.2596 2.54527L18.7843 3.00404V2.35809C18.7843 2.26075 18.7439 2.1674 18.672 2.09857C18.6001 2.02974 18.5026 1.99107 18.4009 1.99107H16.8675C16.7658 1.99107 16.6683 2.02974 16.5964 2.09857C16.5246 2.1674 16.4842 2.26075 16.4842 2.35809V3.00404L16.0088 2.54527C15.9364 2.47651 15.8386 2.43792 15.7366 2.43792C15.6347 2.43792 15.5368 2.47651 15.4644 2.54527L14.3796 3.58393C14.3077 3.65322 14.2674 3.74689 14.2674 3.84451C14.2674 3.94213 14.3077 4.0358 14.3796 4.10509L14.8587 4.56019H14.184C14.0824 4.56019 13.9849 4.59886 13.913 4.66769C13.8411 4.73652 13.8007 4.82987 13.8007 4.92721V6.39528C13.8007 6.49262 13.8411 6.58597 13.913 6.6548C13.9849 6.72363 14.0824 6.7623 14.184 6.7623H14.8587L14.4754 7.12931H12.2673V6.36959C12.2667 6.21669 12.2999 6.0654 12.3647 5.92563C12.4294 5.78585 12.5242 5.66074 12.643 5.55848C13.0817 5.18525 13.4138 4.71103 13.6077 4.18067C13.8017 3.65032 13.8511 3.08136 13.7513 2.52762C13.6515 1.97389 13.4058 1.45367 13.0375 1.01619C12.6691 0.578714 12.1903 0.238432 11.6463 0.0275333C11.5879 0.00457199 11.5245 -0.00423554 11.4617 0.0018926C11.3989 0.00802074 11.3387 0.028895 11.2863 0.0626623C11.234 0.0964296 11.1912 0.142045 11.1617 0.19546C11.1322 0.248875 11.1169 0.308437 11.1172 0.368859V2.89394L10.3505 3.38574L9.58382 2.89394V0.368859C9.58413 0.308437 9.56886 0.248875 9.53936 0.19546C9.50986 0.142045 9.46704 0.0964296 9.41471 0.0626623C9.36237 0.028895 9.30214 0.00802074 9.23935 0.0018926C9.17656 -0.00423554 9.11317 0.00457199 9.05479 0.0275333C8.51077 0.238432 8.03193 0.578714 7.66359 1.01619C7.29524 1.45367 7.04955 1.97389 6.94976 2.52762C6.84997 3.08136 6.89938 3.65032 7.09332 4.18067C7.28726 4.71103 7.61932 5.18525 8.05807 5.55848C8.17681 5.66074 8.27164 5.78585 8.33638 5.92563C8.40112 6.0654 8.43431 6.21669 8.43376 6.36959V7.12931H8.05041C7.9794 7.12853 7.90962 7.1471 7.84921 7.18284C7.78881 7.21858 7.74025 7.27002 7.70922 7.33117L6.17581 10.2673C6.1464 10.3232 6.1324 10.3853 6.13514 10.4478C6.13787 10.5103 6.15725 10.5711 6.19144 10.6245C6.22562 10.6778 6.27348 10.7219 6.33046 10.7525C6.38743 10.7831 6.45165 10.7993 6.517 10.7995H7.66705V15.2844L6.90035 15.4679V14.8367C6.90035 14.7393 6.85996 14.646 6.78807 14.5772C6.71617 14.5083 6.61867 14.4697 6.517 14.4697H3.45017C3.3485 14.4697 3.251 14.5083 3.1791 14.5772C3.10721 14.646 3.06682 14.7393 3.06682 14.8367V15.2037H0.383353C0.281681 15.2037 0.184174 15.2424 0.112281 15.3112C0.0403888 15.38 0 15.4734 0 15.5707V20.7089C0 20.8063 0.0403888 20.8996 0.112281 20.9685C0.184174 21.0373 0.281681 21.076 0.383353 21.076H3.06682V21.443C3.06682 21.5403 3.10721 21.6337 3.1791 21.7025C3.251 21.7713 3.3485 21.81 3.45017 21.81H6.517C6.61867 21.81 6.71617 21.7713 6.78807 21.7025C6.85996 21.6337 6.90035 21.5403 6.90035 21.443V20.9365L7.39487 21.1714C7.7677 21.3491 8.17831 21.442 8.59477 21.443H14.3336C14.8048 21.444 15.2679 21.3249 15.6753 21.098L22.1156 17.5379C22.3988 17.3815 22.6223 17.1423 22.7533 16.8555C22.8842 16.5686 22.9158 16.2492 22.8434 15.9439C22.771 15.6386 22.5983 15.3636 22.3508 15.159C22.1032 14.9545 21.7938 14.8313 21.4677 14.8073V10.7995H22.6178C22.6832 10.7993 22.7474 10.7831 22.8043 10.7525C22.8613 10.7219 22.9092 10.6778 22.9434 10.6245C22.9775 10.5711 22.9969 10.5103 22.9997 10.4478C23.0024 10.3853 22.9884 10.3232 22.959 10.2673ZM3.06682 20.3419H0.766705V15.9377H3.06682V20.3419ZM6.13364 21.076H3.83353V15.2037H6.13364V21.076ZM14.5674 6.02826V5.29423H15.4683C15.5506 5.294 15.6307 5.26859 15.6969 5.22172C15.7631 5.17485 15.812 5.10895 15.8363 5.03365C15.8531 4.98165 15.8749 4.93127 15.9015 4.88317C15.9392 4.81388 15.9529 4.73487 15.9405 4.65764C15.9281 4.58041 15.8902 4.50898 15.8325 4.45376L15.1923 3.84451L15.7366 3.32335L16.373 3.93627C16.4307 3.99156 16.5053 4.02778 16.5859 4.03966C16.6666 4.05154 16.7491 4.03847 16.8215 4.00233C16.8718 3.97688 16.9244 3.95599 16.9787 3.93994C17.0573 3.91663 17.1262 3.86988 17.1751 3.8065C17.2241 3.74312 17.2506 3.66643 17.2509 3.5876V2.72511H18.0176V3.5876C18.0178 3.66643 18.0444 3.74312 18.0933 3.8065C18.1423 3.86988 18.2111 3.91663 18.2898 3.93994C18.3441 3.95599 18.3967 3.97688 18.4469 4.00233C18.5193 4.03847 18.6018 4.05154 18.6825 4.03966C18.7632 4.02778 18.8378 3.99156 18.8955 3.93627L19.5318 3.32335L20.0762 3.84451L19.436 4.45376C19.3782 4.50898 19.3404 4.58041 19.328 4.65764C19.3156 4.73487 19.3292 4.81388 19.367 4.88317C19.3936 4.93127 19.4154 4.98165 19.4321 5.03365C19.4565 5.10895 19.5053 5.17485 19.5715 5.22172C19.6377 5.26859 19.7178 5.294 19.8002 5.29423H20.701V6.02826H19.8002C19.7178 6.02849 19.6377 6.0539 19.5715 6.10077C19.5053 6.14765 19.4565 6.21354 19.4321 6.28884C19.4154 6.34084 19.3936 6.39122 19.367 6.43932C19.3292 6.50861 19.3156 6.58762 19.328 6.66485C19.3404 6.74209 19.3782 6.81351 19.436 6.86873L19.712 7.12931H15.5565L15.8325 6.86873C15.8902 6.81351 15.9281 6.74209 15.9405 6.66485C15.9529 6.58762 15.9392 6.50861 15.9015 6.43932C15.8749 6.39122 15.8531 6.34084 15.8363 6.28884C15.812 6.21354 15.7631 6.14765 15.6969 6.10077C15.6307 6.0539 15.5506 6.02849 15.4683 6.02826H14.5674ZM14.9508 9.05248L15.7596 10.5976C15.7907 10.6588 15.8392 10.7102 15.8996 10.746C15.96 10.7817 16.0298 10.8003 16.1008 10.7995H20.701V14.9394C20.6627 14.9578 20.6205 14.9761 20.5822 14.9945L16.8445 17.0608C16.6404 16.768 16.3328 16.5556 15.9781 16.4626L14.9508 16.202V9.05248ZM7.66705 3.09213C7.6661 2.67753 7.77025 2.2689 7.97057 1.90133C8.17088 1.53375 8.46138 1.21821 8.81711 0.981778V3.09213C8.81744 3.15258 8.83336 3.21201 8.86345 3.26516C8.89355 3.3183 8.93689 3.3635 8.98962 3.39675L10.1397 4.13078C10.2016 4.172 10.2751 4.1941 10.3505 4.1941C10.4259 4.1941 10.4995 4.172 10.5614 4.13078L11.7114 3.39675C11.7642 3.3635 11.8075 3.3183 11.8376 3.26516C11.8677 3.21201 11.8836 3.15258 11.8839 3.09213V0.981778C12.2167 1.20352 12.4927 1.49456 12.6911 1.83306C12.8895 2.17156 13.0053 2.5487 13.0296 2.93616C13.054 3.32362 12.9863 3.71133 12.8317 4.07016C12.6771 4.42899 12.4396 4.74962 12.1369 5.00796C11.9357 5.1784 11.7748 5.38807 11.665 5.6229C11.5552 5.85774 11.4992 6.11232 11.5006 6.36959V7.12931H10.7339V6.02826C10.7339 5.93092 10.6935 5.83757 10.6216 5.76874C10.5497 5.69991 10.4522 5.66125 10.3505 5.66125C10.2489 5.66125 10.1513 5.69991 10.0795 5.76874C10.0076 5.83757 9.96717 5.93092 9.96717 6.02826V7.12931H9.20046V6.36959C9.20169 6.1127 9.14595 5.85848 9.03691 5.62375C8.92787 5.38902 8.76802 5.17913 8.56793 5.00796C8.28441 4.76807 8.05745 4.47318 7.90213 4.14286C7.74681 3.81255 7.66667 3.45437 7.66705 3.09213ZM7.13803 10.0655L8.28808 7.86335H13.9464L12.7963 10.0655H7.13803ZM14.184 9.05248V16.0038L10.2585 14.9982C9.81835 14.8845 9.35508 14.8807 8.91295 14.9872L8.43376 15.1009V10.7995H13.034C13.105 10.8003 13.1748 10.7817 13.2352 10.746C13.2956 10.7102 13.3441 10.6588 13.3752 10.5976L14.184 9.05248ZM22.0083 15.901C22.1101 16.069 22.1382 16.2688 22.0865 16.4566C22.0347 16.6444 21.9074 16.8049 21.7323 16.903L15.2919 20.463C15.0007 20.6244 14.6701 20.7092 14.3336 20.7089H8.59477C8.29655 20.7095 8.00238 20.6429 7.73606 20.5144L6.90035 20.1144V16.224L9.09696 15.6992C9.41306 15.6227 9.74439 15.6252 10.0592 15.7065L15.7788 17.1746C15.9259 17.2112 16.0583 17.289 16.159 17.3981C16.2596 17.5071 16.324 17.6425 16.3438 17.7868C16.3635 17.9311 16.3378 18.0778 16.27 18.2081C16.2021 18.3383 16.0951 18.4462 15.9628 18.5179C15.8764 18.5667 15.7806 18.5983 15.6812 18.6109C15.5817 18.6235 15.4806 18.6168 15.3839 18.5913L10.8105 17.4168C10.7119 17.3915 10.6068 17.4047 10.5184 17.4536C10.43 17.5025 10.3655 17.583 10.339 17.6774C10.3126 17.7718 10.3264 17.8724 10.3775 17.9571C10.4285 18.0417 10.5126 18.1035 10.6112 18.1288L15.1846 19.2996C15.3146 19.3331 15.4486 19.3504 15.5833 19.351C15.8515 19.3514 16.1149 19.2829 16.3462 19.1528C16.5214 19.057 16.675 18.9288 16.798 18.7757C16.9211 18.6226 17.0112 18.4476 17.063 18.2609C17.1056 18.0991 17.1198 17.9317 17.1052 17.7655L20.9656 15.6331C21.1417 15.5395 21.349 15.5151 21.5435 15.5651C21.7381 15.6151 21.9048 15.7356 22.0083 15.901ZM16.3385 10.0655L15.1884 7.86335H20.8467L21.9968 10.0655H16.3385Z" fill="#979797"/>
<path d="M19.1672 5.66125C19.1672 5.37089 19.0772 5.08705 18.9087 4.84563C18.7402 4.60421 18.5008 4.41604 18.2206 4.30493C17.9404 4.19381 17.6321 4.16474 17.3346 4.22139C17.0371 4.27803 16.7639 4.41785 16.5495 4.62316C16.335 4.82848 16.189 5.09006 16.1298 5.37484C16.0706 5.65962 16.101 5.9548 16.2171 6.22305C16.3331 6.49131 16.5297 6.72059 16.7818 6.8819C17.034 7.04321 17.3305 7.12931 17.6338 7.12931C18.0404 7.12931 18.4305 6.97464 18.718 6.69933C19.0056 6.42401 19.1672 6.0506 19.1672 5.66125ZM17.6338 6.39528C17.4821 6.39528 17.3339 6.35223 17.2078 6.27157C17.0817 6.19092 16.9834 6.07628 16.9254 5.94215C16.8674 5.80802 16.8522 5.66043 16.8818 5.51804C16.9114 5.37565 16.9844 5.24486 17.0916 5.14221C17.1988 5.03955 17.3354 4.96964 17.4842 4.94132C17.6329 4.91299 17.7871 4.92753 17.9272 4.98309C18.0673 5.03864 18.187 5.13273 18.2712 5.25344C18.3555 5.37415 18.4005 5.51607 18.4005 5.66125C18.4005 5.85592 18.3197 6.04263 18.1759 6.18029C18.0321 6.31794 17.8371 6.39528 17.6338 6.39528Z" fill="#979797"/>
</svg>
