<svg width="32" height="8" viewBox="0 0 32 8" fill="none" xmlns="http://www.w3.org/2000/svg">
<path d="M30.379 1.17157C31.8937 2.73366 31.8937 5.26634 30.379 6.82843C28.8642 8.39052 26.4083 8.39052 24.8935 6.82843C23.3788 5.26634 23.3788 2.73366 24.8935 1.17157C26.4083 -0.390524 28.8642 -0.390524 30.379 1.17157Z" fill="#979797"/>
<path d="M18.5004 1.17157C20.0152 2.73366 20.0152 5.26634 18.5004 6.82843C16.9857 8.39052 14.5297 8.39052 13.015 6.82843C11.5002 5.26634 11.5002 2.73366 13.015 1.17157C14.5297 -0.390524 16.9857 -0.390524 18.5004 1.17157Z" fill="#979797"/>
<path d="M6.82843 1.17157C8.39052 2.73366 8.39052 5.26634 6.82843 6.82843C5.26634 8.39052 2.73366 8.39052 1.17157 6.82843C-0.390524 5.26634 -0.390524 2.73366 1.17157 1.17157C2.73366 -0.390524 5.26634 -0.390524 6.82843 1.17157Z" fill="#979797"/>
</svg>
