<svg width="21" height="20" viewBox="0 0 21 20" fill="none" xmlns="http://www.w3.org/2000/svg">
<path d="M10.5002 9.52381C11.4892 9.52381 12.4558 9.24453 13.2781 8.72128C14.1003 8.19804 14.7412 7.45433 15.1196 6.58421C15.4981 5.71408 15.5971 4.75662 15.4042 3.83291C15.2112 2.90919 14.735 2.0607 14.0358 1.39473C13.3365 0.728767 12.4456 0.27524 11.4757 0.0915008C10.5058 -0.0922383 9.50046 0.00206326 8.58683 0.362481C7.6732 0.722898 6.8923 1.33324 6.3429 2.11633C5.79349 2.89943 5.50024 3.82009 5.50024 4.76191C5.50024 6.02484 6.02703 7.23605 6.96471 8.12908C7.90239 9.02211 9.17416 9.52381 10.5002 9.52381ZM10.5002 0.952383C11.2914 0.952383 12.0647 1.17581 12.7225 1.5944C13.3803 2.013 13.893 2.60797 14.1958 3.30406C14.4985 4.00016 14.5777 4.76613 14.4234 5.50511C14.269 6.24408 13.8881 6.92287 13.3287 7.45565C12.7693 7.98842 12.0565 8.35124 11.2806 8.49823C10.5047 8.64522 9.70041 8.56978 8.96951 8.28145C8.23861 7.99311 7.61389 7.50484 7.17437 6.87836C6.73484 6.25189 6.50024 5.51536 6.50024 4.76191C6.50024 3.75156 6.92167 2.78259 7.67182 2.06817C8.42196 1.35374 9.43938 0.952383 10.5002 0.952383Z" fill="black"/>
<path d="M11.56 10.4762H9.44004C8.19642 10.4799 6.96576 10.7169 5.81831 11.1736C4.67086 11.6304 3.6291 12.2978 2.75252 13.138C1.87593 13.9781 1.18168 14.9745 0.709415 16.0702C0.237145 17.1659 -0.00389823 18.3394 4.7673e-05 19.5238C4.7673e-05 19.6501 0.0527262 19.7712 0.146494 19.8605C0.240262 19.9498 0.367439 20 0.500048 20H20.5C20.6388 19.988 20.7676 19.9262 20.8604 19.8272C20.9533 19.7282 21.0031 19.5993 21 19.4667C20.9948 17.0838 19.9985 14.7999 18.2293 13.115C16.4601 11.43 14.0621 10.4812 11.56 10.4762ZM1.00005 19.0476C1.11755 16.9925 2.05639 15.0581 3.62397 13.6413C5.19154 12.2246 7.26897 11.4328 9.43005 11.4286H11.55C13.7146 11.428 15.797 12.2175 17.3689 13.6348C18.9407 15.0521 19.8823 16.9892 20 19.0476H1.00005Z" fill="black"/>
</svg>
