<svg width="12" height="12" viewBox="0 0 12 12" fill="none" xmlns="http://www.w3.org/2000/svg">
<path d="M8.14137 7.92855C9.57004 5.92481 9.39044 6.1748 9.43161 6.12255C9.95175 5.46682 10.2267 4.69505 10.2267 3.89062C10.2267 1.75734 8.28987 0 5.9 0C3.51792 0 1.57333 1.75388 1.57333 3.89062C1.57333 4.69453 1.85402 5.48651 2.3912 6.15108L3.65858 7.92858C2.30354 8.1147 0 8.66934 0 9.89062C0 10.3358 0.325103 10.9703 1.87389 11.4647C2.95535 11.8099 4.38517 12 5.9 12C8.73266 12 11.8 11.2858 11.8 9.89062C11.8 8.66913 9.49916 8.11507 8.14137 7.92855ZM3.04831 5.76434C3.04398 5.75829 3.03947 5.75238 3.03475 5.74657C2.58774 5.19691 2.36 4.54549 2.36 3.89062C2.36 2.13239 3.94398 0.703125 5.9 0.703125C7.85196 0.703125 9.44 2.13302 9.44 3.89062C9.44 4.54655 9.21656 5.17587 8.79373 5.71104C8.75584 5.75571 8.95353 5.48121 5.9 9.7638L3.04831 5.76434ZM5.9 11.2969C2.80594 11.2969 0.786667 10.484 0.786667 9.89062C0.786667 9.49181 1.82423 8.83605 4.12339 8.58045L5.56829 10.6069C5.64051 10.7082 5.76558 10.7695 5.89997 10.7695C6.03436 10.7695 6.15947 10.7082 6.23166 10.6069L7.67653 8.58045C9.97575 8.83605 11.0133 9.49181 11.0133 9.89062C11.0133 10.479 9.01224 11.2969 5.9 11.2969Z" fill="#DB3E0C"/>
<path d="M5.90026 2.13281C4.81584 2.13281 3.93359 2.92137 3.93359 3.89062C3.93359 4.85988 4.81584 5.64844 5.90026 5.64844C6.98468 5.64844 7.86693 4.85988 7.86693 3.89062C7.86693 2.92137 6.98468 2.13281 5.90026 2.13281ZM5.90026 4.94531C5.24961 4.94531 4.72026 4.47218 4.72026 3.89062C4.72026 3.30907 5.24961 2.83594 5.90026 2.83594C6.55091 2.83594 7.08026 3.30907 7.08026 3.89062C7.08026 4.47218 6.55091 4.94531 5.90026 4.94531Z" fill="#DB3E0C"/>
</svg>
