<svg width="86" height="11" viewBox="0 0 86 11" fill="none" xmlns="http://www.w3.org/2000/svg">
<path d="M11.421 4.57679L8.89147 7.0426L9.48884 10.5253C9.51483 10.6776 9.45229 10.8315 9.32721 10.9224C9.25655 10.974 9.17249 11 9.08843 11C9.02386 11 8.95888 10.9846 8.89959 10.9533L5.77185 9.30902L2.64451 10.9529C2.50806 11.0252 2.34197 11.0134 2.21689 10.922C2.09181 10.8311 2.02928 10.6772 2.05527 10.5249L2.65263 7.0422L0.12266 4.57679C0.0122021 4.46877 -0.0280013 4.30715 0.019918 4.16055C0.0678372 4.01395 0.194945 3.90633 0.348043 3.884L3.84412 3.37638L5.40758 0.208022C5.54444 -0.0693408 5.99926 -0.0693408 6.13612 0.208022L7.69958 3.37638L11.1957 3.884C11.3488 3.90633 11.4759 4.01354 11.5238 4.16055C11.5717 4.30755 11.5315 4.46837 11.421 4.57679Z" fill="#EA7649"/>
<path d="M30.6848 4.57679L28.1552 7.0426L28.7526 10.5253C28.7786 10.6776 28.716 10.8315 28.5909 10.9224C28.5203 10.974 28.4362 11 28.3522 11C28.2876 11 28.2226 10.9846 28.1633 10.9533L25.0356 9.30902L21.9082 10.9529C21.7718 11.0252 21.6057 11.0134 21.4806 10.922C21.3555 10.8311 21.293 10.6772 21.319 10.5249L21.9164 7.0422L19.3864 4.57679C19.2759 4.46877 19.2357 4.30715 19.2837 4.16055C19.3316 4.01395 19.4587 3.90633 19.6118 3.884L23.1078 3.37638L24.6713 0.208022C24.8082 -0.0693408 25.263 -0.0693408 25.3998 0.208022L26.9633 3.37638L30.4594 3.884C30.6125 3.90633 30.7396 4.01354 30.7875 4.16055C30.8354 4.30755 30.7952 4.46837 30.6848 4.57679Z" fill="#EA7649"/>
<path d="M68.935 4.57679L66.4054 7.0426L67.0028 10.5253C67.0288 10.6776 66.9663 10.8315 66.8412 10.9224C66.7705 10.974 66.6865 11 66.6024 11C66.5378 11 66.4729 10.9846 66.4136 10.9533L63.2858 9.30902L60.1585 10.9529C60.022 11.0252 59.8559 11.0134 59.7309 10.922C59.6058 10.8311 59.5433 10.6772 59.5692 10.5249L60.1666 7.0422L57.6366 4.57679C57.5262 4.46877 57.486 4.30715 57.5339 4.16055C57.5818 4.01395 57.7089 3.90633 57.862 3.884L61.3581 3.37638L62.9216 0.208022C63.0584 -0.0693408 63.5132 -0.0693408 63.6501 0.208022L65.2136 3.37638L68.7096 3.884C68.8627 3.90633 68.9898 4.01354 69.0378 4.16055C69.0857 4.30755 69.0455 4.46837 68.935 4.57679Z" fill="#EA7649"/>
<path d="M49.9482 4.57679L47.4186 7.0426L48.016 10.5253C48.042 10.6776 47.9794 10.8315 47.8544 10.9224C47.7837 10.974 47.6996 11 47.6156 11C47.551 11 47.486 10.9846 47.4268 10.9533L44.299 9.30902L41.1717 10.9529C41.0352 11.0252 40.8691 11.0134 40.7441 10.922C40.619 10.8311 40.5564 10.6772 40.5824 10.5249L41.1798 7.0422L38.6498 4.57679C38.5394 4.46877 38.4992 4.30715 38.5471 4.16055C38.595 4.01395 38.7221 3.90633 38.8752 3.884L42.3713 3.37638L43.9347 0.208022C44.0716 -0.0693408 44.5264 -0.0693408 44.6633 0.208022L46.2267 3.37638L49.7228 3.884C49.8759 3.90633 50.003 4.01354 50.0509 4.16055C50.0989 4.30755 50.0587 4.46837 49.9482 4.57679Z" fill="#EA7649"/>
<path d="M82.8757 6.68457L82.6875 6.86805L82.7319 7.12713L83.2971 10.4222L80.3378 8.86645L80.1051 8.74414L79.8725 8.86644L76.9135 10.4218L77.4787 7.12672L77.5231 6.86759L77.3348 6.6841L74.9412 4.35151L78.2492 3.87119L78.5094 3.83341L78.6257 3.59764L80.1051 0.599735L81.5845 3.59764L81.7008 3.83341L81.961 3.87119L85.2691 4.35151L82.8757 6.68457ZM80.021 0.429263L80.021 0.429281L80.021 0.429263Z" stroke="#FF9800"/>
</svg>
