<svg width="17" height="18" viewBox="0 0 17 18" fill="none" xmlns="http://www.w3.org/2000/svg">
<path d="M3.85188 9.63847C3.30598 9.55824 2.75633 9.50608 2.2051 9.48219C1.96338 9.46724 1.64478 9.59326 1.5896 10.2027C1.5793 10.356 1.59409 10.5099 1.63339 10.6584C1.67 10.8134 1.75254 10.9538 1.87023 11.0612C1.98792 11.1686 2.13527 11.238 2.29302 11.2603L4.64928 11.5921C4.66105 11.594 4.67295 11.595 4.68488 11.595C4.7309 11.595 4.77616 11.5831 4.81625 11.5605C4.85634 11.5379 4.88991 11.5053 4.91369 11.4659C4.93748 11.4265 4.95067 11.3817 4.952 11.3357C4.95332 11.2896 4.94273 11.2441 4.92125 11.2034C4.14627 9.72924 3.94764 9.66801 3.85188 9.63847ZM2.36742 10.7317C2.31566 10.7238 2.26747 10.7005 2.22907 10.6649C2.19068 10.6293 2.16385 10.583 2.15205 10.532C2.12722 10.4405 2.11689 10.3458 2.12144 10.2511C2.12228 10.1701 2.14062 10.0902 2.17519 10.0169H2.18267C2.7914 10.055 3.47596 10.1101 3.66142 10.1429C3.86185 10.4111 4.0411 10.6945 4.19754 10.9905L2.36742 10.7317Z" fill="#4D3F98"/>
<path d="M14.7952 9.48217C14.2439 9.50606 13.6943 9.55822 13.1484 9.63845C13.0526 9.668 12.8537 9.72923 12.0776 11.2048C12.0561 11.2455 12.0455 11.2911 12.0469 11.3371C12.0482 11.3831 12.0614 11.4279 12.0852 11.4673C12.109 11.5067 12.1425 11.5393 12.1826 11.5619C12.2227 11.5845 12.268 11.5964 12.314 11.5964C12.3259 11.5964 12.3378 11.5955 12.3496 11.5935L14.7058 11.2617C14.8636 11.2394 15.0109 11.17 15.1286 11.0626C15.2463 10.9552 15.3289 10.8148 15.3655 10.6598C15.4046 10.5113 15.4194 10.3574 15.4093 10.2041C15.3551 9.59324 15.0348 9.46758 14.7952 9.48217ZM14.8482 10.532C14.8364 10.583 14.8096 10.6293 14.7712 10.6649C14.7328 10.7005 14.6846 10.7238 14.6329 10.7317L12.8027 10.9894C12.9593 10.6935 13.1384 10.4102 13.3385 10.1418C13.5272 10.1087 14.2124 10.0535 14.8208 10.0158C14.8596 10.0881 14.8796 10.169 14.8788 10.2511C14.8834 10.3457 14.8731 10.4405 14.8482 10.532Z" fill="#4D3F98"/>
<path d="M12.1961 9.88695C12.1692 9.84853 12.1327 9.81785 12.0902 9.79798C12.0477 9.77811 12.0008 9.76975 11.9541 9.77374C11.9295 9.77588 9.47712 9.98733 8.50101 9.98733C7.52491 9.98733 5.07218 9.77374 5.04797 9.77374C5.00122 9.76962 4.95422 9.77792 4.9117 9.79778C4.86918 9.81765 4.83266 9.84838 4.80583 9.88688C4.77899 9.92538 4.76279 9.97028 4.75887 10.017C4.75494 10.0638 4.76343 10.1108 4.78348 10.1532L5.48654 11.6451C5.5071 11.6885 5.53893 11.7256 5.57869 11.7524C5.61845 11.7793 5.66469 11.795 5.71259 11.7979L8.49959 11.9573L11.2909 11.7979C11.3388 11.795 11.3851 11.7794 11.4248 11.7525C11.4646 11.7256 11.4964 11.6886 11.5169 11.6451L12.22 10.1532C12.2399 10.1107 12.2481 10.0636 12.2439 10.0169C12.2398 9.9701 12.2233 9.92527 12.1961 9.88695ZM11.1004 11.2753L8.5003 11.4255L5.90162 11.2753L5.4634 10.3455C6.23197 10.4081 7.75558 10.5234 8.50137 10.5234C9.24716 10.5234 10.7711 10.4081 11.54 10.3455L11.1004 11.2753Z" fill="#4D3F98"/>
<path d="M10.0348 1.77619L10.4285 1.92357C10.5573 1.9717 10.6742 2.04687 10.7714 2.14402C10.8686 2.24117 10.9439 2.35804 10.9921 2.48674L11.1394 2.88188C11.1587 2.93239 11.1928 2.97587 11.2373 3.00655C11.2818 3.03723 11.3346 3.05366 11.3886 3.05366C11.4427 3.05366 11.4955 3.03723 11.54 3.00655C11.5845 2.97587 11.6186 2.93239 11.6378 2.88188L11.7852 2.48816C11.8335 2.35955 11.9087 2.24276 12.0058 2.14563C12.103 2.04849 12.2198 1.97327 12.3484 1.925L12.7421 1.77762C12.7926 1.75839 12.8361 1.72426 12.8668 1.67976C12.8974 1.63526 12.9139 1.58248 12.9139 1.52843C12.9139 1.47438 12.8974 1.4216 12.8668 1.3771C12.8361 1.3326 12.7926 1.29847 12.7421 1.27924L12.3484 1.13186C12.2197 1.08366 12.1028 1.00841 12.0056 0.9112C11.9085 0.813989 11.8333 0.697074 11.7852 0.568342L11.6392 0.171776C11.62 0.121261 11.5859 0.0777825 11.5414 0.047105C11.4969 0.0164276 11.4441 0 11.3901 0C11.336 0 11.2832 0.0164276 11.2387 0.047105C11.1942 0.0777825 11.1601 0.121261 11.1409 0.171776L10.9921 0.565494C10.9439 0.694227 10.8688 0.811141 10.7716 0.908352C10.6745 1.00556 10.5576 1.08081 10.4289 1.12902L10.0352 1.27639C9.98466 1.29562 9.94119 1.32975 9.91051 1.37425C9.87983 1.41876 9.8634 1.47153 9.8634 1.52558C9.8634 1.57963 9.87983 1.63241 9.91051 1.67691C9.94119 1.72141 9.98466 1.75554 10.0352 1.77477L10.0348 1.77619ZM11.3893 0.971316C11.5214 1.20247 11.7129 1.39408 11.944 1.52629C11.7128 1.65841 11.5213 1.85005 11.3893 2.08127C11.2571 1.85016 11.0655 1.65856 10.8344 1.52629C11.0655 1.39402 11.2571 1.20243 11.3893 0.971316Z" fill="#4D3F98"/>
<path d="M13.0365 3.4333L13.3348 3.54508C13.4237 3.57845 13.5045 3.63047 13.5716 3.69765C13.6387 3.76482 13.6906 3.84559 13.7239 3.93452L13.8357 4.23284C13.8547 4.28379 13.8889 4.3277 13.9336 4.3587C13.9783 4.38971 14.0314 4.40632 14.0858 4.40632C14.1402 4.40632 14.1933 4.38971 14.238 4.3587C14.2826 4.3277 14.3168 4.28379 14.3359 4.23284L14.4473 3.93452C14.4806 3.84557 14.5326 3.76479 14.5998 3.69761C14.667 3.63043 14.7478 3.57842 14.8367 3.54508L15.135 3.4333C15.1854 3.41392 15.2287 3.37974 15.2593 3.33526C15.2898 3.29077 15.3062 3.23807 15.3062 3.18411C15.3062 3.13014 15.2898 3.07745 15.2593 3.03296C15.2287 2.98848 15.1854 2.95429 15.135 2.93492L14.8367 2.82172C14.7478 2.78861 14.6671 2.73675 14.6 2.66968C14.533 2.6026 14.4811 2.52188 14.448 2.43298L14.3359 2.13431C14.3168 2.08337 14.2826 2.03945 14.238 2.00845C14.1933 1.97744 14.1402 1.96083 14.0858 1.96083C14.0314 1.96083 13.9783 1.97744 13.9336 2.00845C13.8889 2.03945 13.8547 2.08337 13.8357 2.13431L13.7239 2.43298C13.6906 2.52187 13.6387 2.60259 13.5716 2.66971C13.5044 2.73683 13.4237 2.78878 13.3348 2.82207L13.0362 2.93385C12.9856 2.95308 12.9422 2.98721 12.9115 3.03171C12.8808 3.07621 12.8644 3.12899 12.8644 3.18304C12.8644 3.23709 12.8808 3.28987 12.9115 3.33437C12.9422 3.37887 12.9856 3.413 13.0362 3.43223L13.0365 3.4333ZM14.0856 2.88188C14.1668 2.99908 14.2685 3.10072 14.3857 3.18197C14.2687 3.26338 14.1671 3.36486 14.0856 3.48171C14.0043 3.36479 13.9028 3.2633 13.7859 3.18197C13.9029 3.10072 14.0045 2.99907 14.0856 2.88188Z" fill="#4D3F98"/>
<path d="M14.7039 1.77619L15.0022 1.88797C15.091 1.92122 15.1717 1.97312 15.2389 2.04018C15.306 2.10723 15.358 2.18788 15.3913 2.2767L15.5031 2.57502C15.5221 2.62597 15.5563 2.66988 15.601 2.70088C15.6457 2.73189 15.6987 2.7485 15.7531 2.7485C15.8075 2.7485 15.8606 2.73189 15.9053 2.70088C15.95 2.66988 15.9842 2.62597 16.0032 2.57502L16.115 2.2767C16.1482 2.18783 16.2001 2.10711 16.2672 2.03999C16.3342 1.97287 16.4149 1.92091 16.5037 1.88761L16.8024 1.77583C16.8529 1.75661 16.8964 1.72248 16.9271 1.67798C16.9578 1.63347 16.9742 1.5807 16.9742 1.52665C16.9742 1.47259 16.9578 1.41982 16.9271 1.37532C16.8964 1.33081 16.8529 1.29669 16.8024 1.27746L16.5041 1.16532C16.4153 1.13209 16.3346 1.08019 16.2675 1.01313C16.2005 0.946073 16.1486 0.865411 16.1154 0.776589L16.0036 0.477918C15.9845 0.42697 15.9504 0.383056 15.9057 0.352053C15.861 0.321049 15.8079 0.304436 15.7535 0.304436C15.6991 0.304436 15.646 0.321049 15.6013 0.352053C15.5566 0.383056 15.5225 0.42697 15.5034 0.477918L15.3916 0.776589C15.3583 0.865435 15.3064 0.946108 15.2393 1.01317C15.1721 1.08023 15.0914 1.13211 15.0026 1.16532L14.7039 1.27746C14.6534 1.29669 14.6099 1.33081 14.5792 1.37532C14.5485 1.41982 14.5321 1.47259 14.5321 1.52665C14.5321 1.5807 14.5485 1.63347 14.5792 1.67798C14.6099 1.72248 14.6534 1.75661 14.7039 1.77583V1.77619ZM15.753 1.22655C15.8345 1.34332 15.9359 1.44479 16.0527 1.52629C15.9359 1.60779 15.8345 1.70926 15.753 1.82603C15.6716 1.70911 15.5701 1.60761 15.4532 1.52629C15.5701 1.44487 15.6715 1.34339 15.753 1.22655Z" fill="#4D3F98"/>
<path d="M16.2642 15.0818C16.1934 15.0818 16.1255 15.1099 16.0755 15.16C16.0254 15.2101 15.9973 15.278 15.9973 15.3488V16.4573C15.9973 16.4824 15.9873 16.5063 15.9696 16.524C15.9519 16.5417 15.9279 16.5517 15.9029 16.5517H14.516C14.491 16.5517 14.467 16.5417 14.4493 16.524C14.4316 16.5063 14.4217 16.4824 14.4217 16.4573V16.0002C14.4217 15.9294 14.3935 15.8615 14.3435 15.8115C14.2934 15.7614 14.2255 15.7333 14.1547 15.7333C14.0839 15.7333 14.016 15.7614 13.9659 15.8115C13.9158 15.8615 13.8877 15.9294 13.8877 16.0002V16.4573C13.8879 16.6239 13.9541 16.7836 14.0719 16.9014C14.1897 17.0192 14.3494 17.0855 14.516 17.0856H15.9043C16.0709 17.0855 16.2306 17.0192 16.3484 16.9014C16.4662 16.7836 16.5325 16.6239 16.5327 16.4573V15.3488C16.5327 15.3136 16.5257 15.2788 16.5122 15.2463C16.4987 15.2138 16.4789 15.1843 16.454 15.1595C16.429 15.1347 16.3994 15.1151 16.3669 15.1017C16.3343 15.0884 16.2994 15.0816 16.2642 15.0818Z" fill="#4D3F98"/>
<path d="M2.82648 15.7329C2.75567 15.7329 2.68776 15.761 2.63769 15.8111C2.58762 15.8612 2.55949 15.9291 2.55949 15.9999V16.457C2.55949 16.4819 2.5496 16.5059 2.53199 16.5236C2.51437 16.5412 2.49047 16.5512 2.46551 16.5513H1.07717C1.05222 16.5512 1.02831 16.5412 1.0107 16.5236C0.993084 16.5059 0.983194 16.4819 0.983194 16.457V15.3488C0.983194 15.278 0.955065 15.2101 0.904995 15.16C0.854925 15.1099 0.787016 15.0818 0.716207 15.0818C0.645397 15.0818 0.577488 15.1099 0.527418 15.16C0.477348 15.2101 0.449219 15.278 0.449219 15.3488V16.4573C0.449313 16.6238 0.515393 16.7834 0.632973 16.9011C0.750553 17.0189 0.910038 17.0853 1.07646 17.0856H2.4648C2.63135 17.0855 2.79101 17.0192 2.90875 16.9014C3.02648 16.7836 3.09266 16.6239 3.09275 16.4573V16.0002C3.09285 15.9295 3.06486 15.8616 3.01493 15.8115C2.96501 15.7614 2.89723 15.7331 2.82648 15.7329Z" fill="#4D3F98"/>
<path d="M16.4845 6.71047L15.5946 6.55668C15.4645 6.53269 15.3302 6.55371 15.2137 6.61629C15.0973 6.67886 15.0056 6.77925 14.9538 6.90092L14.9057 7.00771L14.2749 5.5197C14.1323 5.17851 13.9048 4.87952 13.6139 4.6512C13.323 4.42288 12.9785 4.27284 12.6132 4.21538C11.2521 4.00874 9.87692 3.90805 8.50018 3.91421C7.12343 3.90817 5.74829 4.00898 4.38714 4.21573C4.02189 4.27316 3.67741 4.42315 3.38653 4.6514C3.09566 4.87966 2.86806 5.17858 2.72541 5.5197L2.09247 7.00914L2.04762 6.90448C1.99624 6.78229 1.90479 6.68124 1.78833 6.61796C1.67186 6.55468 1.53732 6.53294 1.40685 6.55633L0.516888 6.71047C0.372463 6.73442 0.24123 6.80886 0.146569 6.92054C0.0519081 7.03221 -3.27008e-05 7.17387 1.54459e-08 7.32027V7.49505C0.000133342 7.63598 0.0482082 7.77267 0.136322 7.88265C0.224437 7.99263 0.347347 8.06936 0.48485 8.10023L1.32995 8.29103L0.95546 8.86239C0.630967 9.35607 0.458316 9.93405 0.458863 10.5248V13.5614C0.458863 14.7073 1.25698 15.4481 2.49295 15.4481H14.5074C15.7434 15.4481 16.5415 14.7076 16.5415 13.5614V10.5234C16.542 9.93263 16.3694 9.35465 16.0449 8.86096L15.6704 8.29139L16.5127 8.10129C16.6506 8.0708 16.774 7.99425 16.8625 7.88425C16.9511 7.77425 16.9996 7.63736 17 7.49612V7.32133C17.0004 7.17494 16.9488 7.03316 16.8544 6.92128C16.76 6.80939 16.6289 6.73468 16.4845 6.71047ZM0.599832 7.57764C0.581094 7.57343 0.564354 7.56295 0.55238 7.54793C0.540405 7.53291 0.533913 7.51426 0.533975 7.49505V7.32027C0.533686 7.3001 0.540755 7.28052 0.553859 7.26518C0.566964 7.24985 0.585206 7.23982 0.605172 7.23697L1.49905 7.08247C1.51159 7.08021 1.52452 7.08257 1.53545 7.08912C1.54638 7.09566 1.55457 7.10595 1.5585 7.11807L1.77671 7.61146L1.64358 7.81437L0.599832 7.57764ZM16.0075 12.7319H1.66956C1.59875 12.7319 1.53084 12.7601 1.48077 12.8101C1.4307 12.8602 1.40258 12.9281 1.40258 12.9989C1.40258 13.0697 1.4307 13.1376 1.48077 13.1877C1.53084 13.2378 1.59875 13.2659 1.66956 13.2659H16.0075V13.5614C16.0075 14.4079 15.4468 14.9141 14.5074 14.9141H2.49295C1.55351 14.9141 0.992838 14.4083 0.992838 13.5614V10.5234C0.992465 10.0367 1.13466 9.56044 1.40186 9.15358L2.24341 7.8699H13.8915C13.9624 7.8699 14.0303 7.84178 14.0803 7.79171C14.1304 7.74164 14.1585 7.67373 14.1585 7.60292C14.1585 7.53211 14.1304 7.4642 14.0803 7.41413C14.0303 7.36406 13.9624 7.33593 13.8915 7.33593H2.53496L3.21702 5.72973C3.32437 5.47203 3.49599 5.24614 3.71548 5.07364C3.93498 4.90113 4.19502 4.78777 4.4708 4.74437C5.80421 4.54126 7.1514 4.44223 8.50018 4.44819C9.84893 4.44188 11.1961 4.54055 12.5296 4.7433C12.8054 4.7868 13.0656 4.90032 13.2851 5.07302C13.5046 5.24572 13.6761 5.47183 13.7833 5.72973L14.5636 7.5691C14.5697 7.58382 14.5772 7.59789 14.5861 7.61111L15.5985 9.15501C15.8657 9.56187 16.0079 10.0381 16.0075 10.5248V12.7319ZM16.466 7.49505C16.466 7.51464 16.4592 7.53363 16.4469 7.54881C16.4345 7.56398 16.4172 7.57442 16.398 7.57835L15.3578 7.8133L15.2247 7.61039L15.4444 7.11202C15.4493 7.10122 15.4577 7.09237 15.4682 7.08683C15.4786 7.08129 15.4907 7.07938 15.5024 7.0814L16.3945 7.2359C16.4144 7.23875 16.4327 7.24879 16.4458 7.26412C16.4589 7.27945 16.466 7.29903 16.4657 7.3192L16.466 7.49505Z" fill="#4D3F98"/>
</svg>
