<svg width="14" height="9" viewBox="0 0 14 9" fill="none" xmlns="http://www.w3.org/2000/svg">
<path d="M0.517485 1.46825C0.51829 0.811001 1.04964 0.273349 1.70683 0.264792L9.24887 0.253139C9.56227 0.252654 9.86231 0.37533 10.0843 0.594732L13.1238 3.59855C13.5913 4.06056 13.5926 4.81722 13.1267 5.28861L10.1066 8.34462C9.8802 8.57365 9.57205 8.70286 9.25139 8.70319L1.72584 8.71082C1.40868 8.71418 1.10424 8.59132 0.879578 8.36929C0.654917 8.14727 0.52847 7.84429 0.528091 7.52711L0.517485 1.46825ZM9.18345 5.32822C9.65094 5.79023 10.4076 5.78263 10.8734 5.31124C11.3393 4.83986 11.338 4.08319 10.8705 3.62118C10.403 3.15917 9.64635 3.16678 9.18049 3.63816C8.71463 4.10955 8.71596 4.86621 9.18345 5.32822Z" fill="#E91E63"/>
</svg>
