<svg width="37" height="29" viewBox="0 0 37 29" fill="none" xmlns="http://www.w3.org/2000/svg">
<path d="M36.1514 17.5716L34.3809 16.9918C34.2667 16.6439 34.0954 16.2961 33.924 15.9482L34.7807 14.2668C34.8949 14.0349 34.8378 13.803 34.6665 13.6291L33.0103 11.9477C32.8389 11.7738 32.5534 11.7158 32.382 11.8318L31.8109 12.1216L31.868 11.194C31.9251 10.6142 31.6967 10.0344 31.2969 9.57061L32.3249 9.45465C33.4671 9.3387 34.3809 8.29509 34.2667 7.01958C34.1525 5.97597 33.2387 5.1063 32.1536 5.1063L30.2118 5.04833C29.5265 5.04833 28.8982 5.33822 28.4985 5.918C27.9845 4.64248 27.2991 3.48292 26.4996 2.14943C25.8142 1.04784 24.6149 0.294128 23.3013 0.294128H10.9081C9.59459 0.294128 8.39525 0.989865 7.70991 2.14943C6.91035 3.48292 6.28213 4.5845 5.76813 5.86002C5.31124 5.28024 4.74012 5.04833 4.1119 5.04833L2.17011 5.1063C0.970771 5.16428 -0.00012207 6.14991 -0.00012207 7.25149C-0.00012207 8.35307 0.856548 9.28072 1.99878 9.45465L2.96967 9.57061C2.56989 9.97646 2.34144 10.5562 2.39856 11.194L2.85545 18.7891C2.91256 19.4849 3.31234 20.0646 3.88345 20.3545V21.746C3.88345 22.7316 4.68301 23.4853 5.6539 23.4853H8.90925C9.88015 23.4853 10.6226 22.6736 10.6226 21.746V20.5864H18.4468C18.504 20.7604 18.6182 20.9343 18.7895 20.9923L20.56 21.5721C20.6742 21.9199 20.8455 22.2678 21.0169 22.6157L20.1031 24.297C19.9889 24.5289 20.046 24.7609 20.2173 24.9348L21.8735 26.6161C22.0449 26.7901 22.3304 26.8481 22.5018 26.7321L24.158 25.8624C24.5007 26.0364 24.8433 26.2103 25.186 26.3263L25.7571 28.1236C25.8142 28.3555 26.0427 28.5294 26.2711 28.5294H28.6127C28.8411 28.5294 29.0696 28.3555 29.1267 28.1236L29.6978 26.3263C30.0405 26.2103 30.3831 26.0364 30.7258 25.8624L32.382 26.7321C32.6105 26.8481 32.8389 26.7901 33.0103 26.6161L34.6665 24.9348C34.8378 24.7609 34.8949 24.471 34.7807 24.297L33.924 22.6157C34.0954 22.2678 34.2667 21.9199 34.3809 21.5721L36.1514 20.9923C36.3798 20.9343 36.5512 20.7024 36.5512 20.4705V18.0934C36.5512 17.8615 36.3798 17.6296 36.1514 17.5716ZM20.5029 16.9918L20.2744 17.0498H13.9351C13.6495 17.0498 13.3639 17.2817 13.3639 17.6296C13.3639 17.9774 13.5924 18.2093 13.9351 18.2093H18.3326V19.4849C8.45236 19.4849 14.6204 19.4849 4.74012 19.4849C4.34034 19.4849 3.94056 19.137 3.94056 18.7311L3.71212 14.4408C3.99767 14.4987 7.31013 16.47 9.42325 13.5131L9.76592 13.861C10.5655 14.8466 11.6506 15.4264 12.8499 15.4264H20.7313L20.9598 15.8902C20.7884 16.2381 20.6171 16.6439 20.5029 16.9918ZM3.48367 11.078C3.48367 11.0201 3.48367 10.9041 3.48367 10.8461C5.82524 10.9621 7.48147 11.8318 8.56658 12.7594C6.96747 15.2525 4.1119 13.2812 3.54078 13.2232L3.48367 11.078ZM20.1602 13.5711C19.9889 13.745 19.9317 14.0349 20.046 14.2089L20.1031 14.3248H12.7928C11.9362 14.3248 11.1366 13.919 10.5655 13.2232C9.1377 11.3679 7.08169 10.1504 4.51168 9.80252C4.91146 9.51263 5.25412 9.10679 5.59679 8.70094H28.784C29.1838 9.22274 29.6978 9.68657 30.2689 10.0924C30.326 10.1504 30.8971 10.3823 30.84 11.078L30.7258 12.6434C30.3831 12.4695 30.0976 12.3536 29.7549 12.2376L29.1838 10.4403C29.1267 10.2084 28.8982 10.0344 28.6698 10.0344H26.2711C26.0427 10.0344 25.8142 10.2084 25.7571 10.4403L25.186 12.2376C24.8433 12.3536 24.5007 12.5275 24.158 12.7014L22.5018 11.8318C22.2733 11.7158 22.0449 11.7738 21.8735 11.9477L20.1602 13.5711ZM30.2118 6.20789L32.1536 6.26586C32.7247 6.26586 33.1245 6.67171 33.1816 7.19351C33.2387 7.77329 32.7818 8.29509 32.2107 8.35307L30.0976 8.58498C29.812 8.29509 29.5265 7.94723 29.298 7.59936L29.2409 7.19351C29.1838 6.61373 29.7549 6.14991 30.2118 6.20789ZM8.68081 2.78718C9.1377 1.97549 9.99437 1.51167 10.9081 1.51167H23.3013C24.2151 1.51167 25.0718 2.03347 25.5287 2.78718C26.4424 4.29461 27.0707 5.45417 27.6418 6.84564C27.756 7.07756 27.8702 7.36745 27.9844 7.59936H6.22502C6.33924 7.36745 6.45346 7.13553 6.56769 6.84564C7.1388 5.45417 7.76702 4.29461 8.68081 2.78718ZM1.14211 7.25149C1.14211 6.72969 1.599 6.20789 2.22722 6.20789L4.16901 6.14991C4.74012 6.14991 5.19701 6.61373 5.1399 7.13553L5.02568 7.4834C4.79723 7.88925 4.51168 8.29509 4.16901 8.58498L2.113 8.35307C1.54189 8.29509 1.14211 7.83127 1.14211 7.25149ZM9.42325 21.746C9.42325 22.0939 9.1377 22.3838 8.79503 22.3838H5.59679C5.25412 22.3838 4.96857 22.0939 4.96857 21.746V20.5864H9.48037V21.746H9.42325ZM35.4089 20.0646L33.7527 20.5864C33.5814 20.6444 33.41 20.8183 33.41 20.9923C33.2958 21.4561 33.0674 21.9199 32.8389 22.3838C32.7247 22.5577 32.7247 22.7316 32.8389 22.9056L33.6385 24.471L32.5534 25.5725L31.0114 24.7609C30.84 24.6449 30.6687 24.7029 30.4974 24.7609C30.0405 24.9928 29.5836 25.2247 29.1267 25.3406C28.9553 25.3986 28.784 25.5146 28.7269 25.6885L28.2129 27.3699H26.6709L26.1569 25.6885C26.0998 25.5146 25.9284 25.3406 25.7571 25.3406C25.3002 25.2247 24.8433 24.9928 24.3864 24.7609C24.2151 24.6449 24.0438 24.6449 23.8724 24.7609L22.3304 25.5725L21.2453 24.471L22.0449 22.9056C22.1591 22.7316 22.102 22.5577 22.0449 22.3838C21.8164 21.9199 21.588 21.4561 21.4738 20.9923C21.4166 20.8183 21.3024 20.6444 21.1311 20.5864L19.4749 20.0646V20.0067V18.4992L21.1311 17.9774C21.3024 17.9194 21.4738 17.7455 21.4738 17.5716C21.588 17.1078 21.8164 16.6439 22.0449 16.1801C22.1591 16.0062 22.1591 15.8322 22.0449 15.6583L21.2453 14.0929L22.3304 12.9913L23.8724 13.803C24.0438 13.919 24.2151 13.861 24.3864 13.803C24.8433 13.5711 25.3002 13.3392 25.7571 13.2232C25.9284 13.1652 26.0998 13.0493 26.1569 12.8754L26.6709 11.194H28.2129L28.7269 12.8754C28.784 13.0493 28.9553 13.2232 29.1267 13.2232C29.5836 13.3392 30.0405 13.5711 30.4974 13.803C30.6687 13.919 30.84 13.919 31.0114 13.803L32.5534 12.9913L33.6385 14.0929L32.8389 15.6583C32.7247 15.8322 32.7818 16.0062 32.8389 16.1801C33.0674 16.6439 33.2958 17.1078 33.41 17.5716C33.4671 17.7455 33.5814 17.9194 33.7527 17.9774L35.4089 18.4992V20.0646Z" fill="white"/>
</svg>
