<svg width="16" height="16" viewBox="0 0 16 16" fill="none" xmlns="http://www.w3.org/2000/svg">
<path d="M12.2427 14.1356L11.9584 8.73401C11.9581 8.72926 11.9578 8.72451 11.9572 8.71983L11.8365 7.57312C11.7994 7.19457 11.9107 6.8224 12.1441 6.52862C12.1471 6.52523 12.1499 6.52156 12.1528 6.51797C12.1848 6.47843 12.2189 6.44025 12.2553 6.40377L12.7704 5.8887H13.0515C13.9411 5.8887 14.7278 5.32169 15.0091 4.47764L15.2748 3.68087C15.3201 3.54462 15.2515 3.39658 15.1182 3.34321L13.4993 2.69563L12.8483 1.88183C12.3818 1.29881 11.6861 0.964478 10.9395 0.964478H9.41799L8.81768 0.214156C8.6693 0.028746 8.43798 -0.0432751 8.21378 0.0257621C7.93898 0.110668 7.74469 0.385596 7.71892 0.726035C7.71763 0.742853 7.71797 0.75974 7.7198 0.77649L7.9379 2.73944L8.00239 4.534L2.73793 13.0887C2.31435 13.0442 1.13272 12.7905 1.13272 11.3471C1.13272 11.2025 1.01933 11.0834 0.874948 11.0762C0.730092 11.0699 0.60592 11.1764 0.591543 11.3201C0.584761 11.3881 0.435701 12.9955 1.34444 14.0688C1.81048 14.6191 2.46409 14.9258 3.28711 14.9801C3.40803 14.9881 3.53105 15.0367 3.64274 15.1204L4.40968 15.6956C4.67152 15.8919 4.99595 16 5.32317 16H9.96181C10.1116 16 10.2331 15.8785 10.2331 15.7287C10.2331 15.0536 9.8177 14.4735 9.22912 14.2308C9.40131 14.0731 9.60184 13.8683 9.79593 13.6213C9.99565 13.3671 10.1592 13.1049 10.2859 12.8377L10.7044 15.7671C10.7235 15.9007 10.8379 16 10.973 16H12.9952C13.145 16 13.2665 15.8785 13.2665 15.7287V15.3917C13.2664 14.7733 12.8262 14.2556 12.2427 14.1356ZM8.32886 5.03869L11.5366 6.46433C11.3425 6.81426 11.2567 7.21797 11.2968 7.62792L11.3724 8.34515L7.53202 6.33351L8.32886 5.03869ZM8.34873 0.557782C8.36772 0.543405 8.38108 0.541913 8.38291 0.542591C8.38393 0.542998 8.3882 0.545711 8.39403 0.553035L9.07572 1.40515C9.1272 1.46944 9.20512 1.50694 9.28758 1.50694H10.9395C11.5204 1.50694 12.0617 1.76709 12.4246 2.22071L13.1202 3.09032C13.1495 3.12687 13.1878 3.15529 13.2313 3.17272L14.6791 3.75187L14.4944 4.306C14.2871 4.92808 13.7072 5.34603 13.0515 5.34603H12.658C12.586 5.34603 12.5171 5.37465 12.4661 5.42551L11.872 6.01965L8.54553 4.54132L8.47968 2.7098C8.47941 2.70302 8.47894 2.69631 8.47819 2.68959L8.26206 0.744481C8.2725 0.660456 8.30418 0.591555 8.34873 0.557782ZM12.7238 15.4575H11.2081L10.5858 11.1019C10.5803 11.0565 10.5738 11.0109 10.5663 10.9655C10.5658 10.9627 10.5646 10.9602 10.5641 10.9574C10.4883 9.89503 9.60028 9.05363 8.51881 9.05363H8.31787C7.37495 9.05363 6.55668 9.69253 6.328 10.6073C6.29165 10.7526 6.38002 10.8999 6.52535 10.9363C6.67075 10.9726 6.81798 10.8843 6.85433 10.7389C7.02251 10.0661 7.62438 9.59616 8.31794 9.59616H8.51888C9.35072 9.59616 10.0275 10.2729 10.0275 11.1047V11.6842C10.0275 11.7173 10.0342 11.7487 10.0451 11.778C9.9806 12.2861 9.75843 12.7869 9.37873 13.274C8.94769 13.8267 8.46748 14.1518 8.46307 14.1549C8.36358 14.2212 8.31923 14.3447 8.35395 14.4591C8.38861 14.5736 8.49399 14.6518 8.61355 14.6518C9.1137 14.6518 9.53531 14.9946 9.65589 15.4575H5.3231C5.11246 15.4575 4.90365 15.3879 4.73513 15.2615L3.96826 14.6863C3.77227 14.5393 3.54909 14.4536 3.32292 14.4387C2.65323 14.3945 2.12752 14.1527 1.76029 13.7203C1.6115 13.545 1.49689 13.3491 1.40866 13.1472C2.0618 13.6314 2.87011 13.6407 2.88374 13.6407C2.97794 13.6407 3.06542 13.5918 3.11479 13.5116L7.24705 6.79669L11.4285 8.98696L11.7131 14.3948C11.7207 14.5389 11.8397 14.6518 11.984 14.6518C12.392 14.6518 12.7239 14.9838 12.7239 15.3917V15.4575H12.7238Z" fill="#ED3074"/>
</svg>
