<svg width="35" height="37" viewBox="0 0 35 37" fill="none" xmlns="http://www.w3.org/2000/svg">
<path d="M27.303 32.6788L26.6457 20.1914C26.6451 20.1804 26.6443 20.1694 26.6431 20.1586L26.364 17.5076C26.2783 16.6325 26.5354 15.7721 27.075 15.0929C27.0821 15.0851 27.0885 15.0766 27.0951 15.0683C27.1691 14.9769 27.2479 14.8887 27.3321 14.8043L28.5229 13.6136H29.1727C31.2293 13.6136 33.048 12.3027 33.6984 10.3515L34.3125 8.50947C34.4174 8.19451 34.2588 7.85226 33.9505 7.72887L30.2081 6.23179L28.703 4.35044C27.6247 3.00261 26.0163 2.22969 24.2903 2.22969H20.7728L19.385 0.495089C19.042 0.0664554 18.5072 -0.100044 17.9889 0.0595572C17.3536 0.255844 16.9044 0.891426 16.8449 1.67846C16.8419 1.71734 16.8427 1.75638 16.8469 1.7951L17.3511 6.33307L17.5002 10.4818L5.32975 30.2586C4.35051 30.1556 1.61879 29.5691 1.61879 26.2324C1.61879 25.8981 1.35666 25.6227 1.02288 25.6061C0.687997 25.5916 0.400935 25.8376 0.367698 26.17C0.35202 26.3271 0.00741974 30.0432 2.10826 32.5244C3.18564 33.7967 4.69668 34.5056 6.59935 34.6312C6.87889 34.6497 7.16328 34.762 7.4215 34.9556L9.19451 36.2852C9.79984 36.7391 10.5499 36.989 11.3063 36.989H22.03C22.3763 36.989 22.6571 36.7082 22.6571 36.3619C22.6571 34.801 21.6969 33.4601 20.3362 32.899C20.7342 32.5343 21.1978 32.0608 21.6465 31.4898C22.1082 30.9022 22.4864 30.2961 22.7793 29.6782L23.7467 36.4505C23.791 36.7595 24.0554 36.989 24.3676 36.989H29.0427C29.3891 36.989 29.6699 36.7082 29.6699 36.3619V35.5827C29.6695 34.153 28.652 32.9562 27.303 32.6788ZM18.2549 11.6485L25.6707 14.9443C25.2219 15.7533 25.0236 16.6866 25.1164 17.6343L25.291 19.2924L16.4128 14.6419L18.2549 11.6485ZM18.3009 1.28949C18.3448 1.25625 18.3757 1.2528 18.3799 1.25437C18.3822 1.25531 18.3921 1.26158 18.4056 1.27851L19.9815 3.24844C20.1005 3.39707 20.2807 3.48377 20.4713 3.48377H24.2901C25.6331 3.48377 26.8845 4.08517 27.7234 5.13387L29.3317 7.14424C29.3994 7.22875 29.4878 7.29444 29.5885 7.33473L32.9356 8.67362L32.5085 9.95466C32.0292 11.3928 30.6886 12.359 29.1727 12.359H28.2631C28.0967 12.359 27.9373 12.4252 27.8195 12.5428L26.446 13.9163L18.7558 10.4987L18.6036 6.26456C18.603 6.24888 18.6019 6.23336 18.6002 6.21784L18.1005 1.7211C18.1246 1.52685 18.1979 1.36756 18.3009 1.28949ZM28.4153 35.7349H24.9111L23.4725 25.6655C23.4598 25.5604 23.4448 25.4551 23.4274 25.3502C23.4263 25.3436 23.4236 25.338 23.4224 25.3316C23.2471 22.8755 21.1942 20.9303 18.6941 20.9303H18.2295C16.0497 20.9303 14.158 22.4073 13.6293 24.5221C13.5453 24.8581 13.7496 25.1984 14.0855 25.2826C14.4217 25.3667 14.7621 25.1624 14.8461 24.8263C15.2349 23.2708 16.6263 22.1845 18.2297 22.1845H18.6942C20.6173 22.1845 22.1818 23.749 22.1818 25.6721V27.0118C22.1818 27.0883 22.1975 27.1607 22.2225 27.2284C22.0734 28.4032 21.5598 29.561 20.682 30.687C19.6855 31.9647 18.5754 32.7163 18.5652 32.7234C18.3352 32.8767 18.2327 33.1623 18.3129 33.4268C18.3931 33.6915 18.6367 33.8722 18.9131 33.8722C20.0693 33.8722 21.044 34.6646 21.3228 35.7348H11.3062C10.8192 35.7348 10.3365 35.5739 9.9469 35.2817L8.17404 33.952C7.72095 33.6121 7.20499 33.4141 6.68213 33.3796C5.13394 33.2774 3.91859 32.7185 3.06963 31.7187C2.72565 31.3136 2.4607 30.8607 2.25673 30.3939C3.76667 31.5133 5.63532 31.5347 5.66683 31.5347C5.8846 31.5347 6.08684 31.4216 6.20097 31.2363L15.754 15.7127L25.4208 20.7762L26.0787 33.278C26.0962 33.6112 26.3714 33.8722 26.705 33.8722C27.6482 33.8722 28.4155 34.6397 28.4155 35.5827V35.7349H28.4153Z" fill="white"/>
</svg>
