<svg width="13" height="13" viewBox="0 0 13 13" fill="none" xmlns="http://www.w3.org/2000/svg">
<path d="M11.7493 9.36555C11.6478 9.36674 11.659 9.36184 11.5241 9.37124V6.22672C11.5241 5.89019 11.2492 5.61639 10.9114 5.61639H9.36459C9.36375 5.61639 9.36296 5.61626 9.36213 5.61626H7.58092V0.879158L9.04177 2.28586C9.12434 2.36538 9.1717 2.47657 9.1717 2.59098V4.91176C9.1717 5.01653 9.25696 5.10146 9.36213 5.10146C9.46729 5.10146 9.55256 5.01653 9.55256 4.91176V2.59098C9.55256 2.37431 9.46288 2.16367 9.30647 2.01307L7.52283 0.29556C7.48273 0.258075 7.4059 0.224434 7.32981 0.252131L4.13005 1.32357V0.584994C4.13246 0.262274 3.84179 -0.0186114 3.50366 0.000965831C3.18026 0.000965831 2.91713 0.262957 2.91713 0.584994V1.72971L2.07998 2.01003C1.75114 2.12016 1.53019 2.42632 1.53019 2.77193V9.36659C0.682781 9.38822 0 10.0812 0 10.9304V11.8951C0 12.157 0.213866 12.37 0.476735 12.37H12.5233C12.7862 12.37 13 12.157 13 11.8951V10.6114C13 9.92447 12.439 9.36555 11.7493 9.36555ZM11.7493 9.74496C12.229 9.74496 12.6192 10.1337 12.6192 10.6115V10.8105H10.772V10.6115C10.7724 10.0929 11.2298 9.70004 11.7493 9.74496ZM11.1432 6.22672V9.46913C10.7011 9.66141 10.3911 10.1009 10.3911 10.6114V10.8104H7.58092V5.99579H10.9114C11.0392 5.99579 11.1432 6.0994 11.1432 6.22672ZM3.29799 0.584994C3.29799 0.47216 3.39026 0.380369 3.50366 0.380369C3.6055 0.365471 3.74264 0.44502 3.74919 0.584994V1.4511L3.29799 1.60217V0.584994ZM1.53022 9.74564V10.8105H0.386903C0.44614 10.2261 0.933107 9.76572 1.53022 9.74564ZM0.38086 11.8951V11.1899H1.53022V11.9906H0.476761C0.423872 11.9906 0.38086 11.9478 0.38086 11.8951ZM1.91108 2.77193C1.91108 2.58946 2.02772 2.42783 2.20135 2.36968L7.20008 0.695856V1.72948L3.04688 3.12019C2.9472 3.15356 2.89355 3.26113 2.92706 3.36046C2.9538 3.43973 3.02799 3.48976 3.10754 3.48976C3.12765 3.48976 3.14811 3.48657 3.16825 3.47982L7.20008 2.12977V3.09485L3.04688 4.48554C2.9472 4.51893 2.89355 4.6265 2.92706 4.7258C2.9538 4.80507 3.02799 4.8551 3.10754 4.8551C3.12765 4.8551 3.14811 4.85192 3.16825 4.84516L7.20008 3.49509V4.46017L3.04688 5.85089C2.9472 5.88425 2.89355 5.99182 2.92706 6.09115C2.9538 6.17042 3.02799 6.22045 3.10754 6.22045C3.12765 6.22045 3.14811 6.21726 3.16825 6.21051L7.20008 4.86047V5.80538C7.20008 5.80564 7.20006 5.80586 7.20006 5.80612V5.82557L3.04688 7.21623C2.9472 7.24962 2.89355 7.35719 2.92706 7.4565C2.9538 7.53577 3.02799 7.5858 3.10754 7.5858C3.12765 7.5858 3.14811 7.58261 3.16825 7.57586L7.20003 6.22579V7.19089L4.60671 8.05927C4.50702 8.09263 4.45337 8.2002 4.48689 8.29953C4.51362 8.3788 4.58782 8.42883 4.66737 8.42883C4.68747 8.42883 4.70794 8.42564 4.72807 8.41889L7.20003 7.59113V11.9906H5.55492V10.0194C5.55492 9.89019 5.49566 9.77126 5.39234 9.69316C5.28903 9.61505 5.15812 9.59016 5.03319 9.62491L3.26075 10.1178C3.05846 10.1741 2.91719 10.3595 2.91719 10.5687V11.9906H1.91108V2.77193ZM3.29805 10.5687C3.29805 10.5291 3.32483 10.4939 3.36315 10.4833L4.0456 10.2935V11.9906H3.29802L3.29805 10.5687ZM4.42646 11.9906V10.1875L5.13559 9.99033C5.14517 9.98765 5.1541 9.98932 5.16205 9.99536C5.17 10.0014 5.17404 10.0095 5.17404 10.0194V11.9906H4.42646ZM7.58092 11.9906V11.1899H10.3911V11.9906H7.58092ZM12.6192 11.8951C12.6192 11.9478 12.5762 11.9906 12.5233 11.9906H10.772V11.1899H12.6192V11.8951Z" fill="#ED3074"/>
</svg>
